<svg width="200" height="200" viewBox="0 0 200 200" fill="none" xmlns="http://www.w3.org/2000/svg">
<path d="M101.664 76.1755V116.765C101.664 116.765 158.261 151.67 158.34 150.742C158.418 149.814 157.972 109.418 157.054 108.867C156.136 108.317 104.912 74.4808 101.664 76.1755Z" fill="#ABC099"/>
<path d="M65.5249 138.196C65.5249 138.196 99.2774 114.688 102.508 115.973C105.739 117.259 142.597 136.176 141.891 138.196C141.185 140.217 99.4942 164.432 98.943 163.987C98.3923 163.542 65.5249 138.196 65.5249 138.196Z" fill="#CDDDC0"/>
<path d="M45.0203 150.926L45.7547 108.867L101.663 143.212V184.169L45.0203 150.926Z" fill="#CDDDC0"/>
<path d="M157.054 108.867C157.054 108.867 158.891 148.354 158.34 150.742C157.789 153.129 103.759 185.821 101.664 184.168C99.5679 182.515 100.671 143.27 100.671 143.27L157.054 108.867Z" fill="#CDDDC0"/>
<path d="M45.7421 109.605C45.7548 108.867 100.821 75.0735 101.664 76.1754C102.507 77.2773 101.664 116.765 101.664 116.765C101.664 116.765 70.5406 133.079 70.6493 132.477C70.7841 131.731 45.7421 109.605 45.7421 109.605Z" fill="#ABC099"/>
<path d="M46.2539 109.174C46.2539 109.174 23.9967 83.9859 23.5315 82.7872C23.0423 81.5269 23.5315 80.7346 23.5315 80.7346C23.5315 80.7346 74.2223 51.9317 78.4465 52.2991C82.6708 52.6666 100.854 74.8898 100.67 76.5424L46.2539 109.174Z" fill="#CDDDC0"/>
<path d="M46.1914 109.578L46.0186 109.382C43.7365 106.8 23.7103 84.1171 23.2383 82.9017C22.6989 81.5115 23.2406 80.6078 23.2641 80.5698L23.3062 80.5015L23.3763 80.4617C25.4498 79.2833 74.2047 51.6032 78.4742 51.986C82.0744 52.2991 93.4236 66.0259 94.706 67.5898C96.2089 69.4234 101.103 75.4899 100.982 76.5773L100.965 76.732L100.831 76.8121L46.1914 109.578ZM23.7682 80.9622C23.6822 81.1527 23.4732 81.7668 23.8252 82.6736C24.2388 83.6099 37.4352 98.7159 46.3168 108.77L100.329 76.3795C99.5494 74.0441 82.5346 52.9702 78.4194 52.6123C75.1694 52.339 41.2943 71.0054 23.7682 80.9622Z" fill="#758B63"/>
<path d="M101.664 76.1755C101.664 76.1755 120.138 53.578 123.26 52.296C126.383 51.014 174.869 82.604 175.604 84.624C175.604 84.624 175.788 85.7259 175.604 87.0115C175.421 88.2971 157.605 108.867 157.055 108.867C156.504 108.867 101.664 76.1755 101.664 76.1755Z" fill="#CDDDC0"/>
<path d="M157.054 109.182C156.499 109.182 122.011 88.6713 101.502 76.4456L101.189 76.2587L101.42 75.9763C102.176 75.0509 119.982 53.3019 123.141 52.005C123.44 51.8824 124.049 51.8584 126.115 52.7716C136.739 57.4678 175.157 82.4731 175.899 84.5167C175.922 84.6194 176.104 85.7372 175.915 87.0563C175.792 87.9183 170.093 94.6753 166.706 98.6267C162.578 103.442 157.553 109.182 157.054 109.182ZM102.137 76.0922C120.466 87.0173 154.542 107.268 157.023 108.512C158.629 107.125 174.901 88.436 175.294 86.9576C175.447 85.8842 175.329 84.9267 175.3 84.7176C174.716 83.7302 163.861 76.1686 150.016 67.3966C132.982 56.6049 124.365 52.1792 123.38 52.5869C120.997 53.5648 108.581 68.2233 102.137 76.0922Z" fill="#758B63"/>
<path d="M101.664 143.212C101.664 143.212 120.506 144.681 122.342 143.212C124.179 141.743 173.951 112.357 174.502 111.255C175.053 110.153 174.869 108.683 173.216 108.867C171.563 109.051 157.054 108.867 157.054 108.867C157.054 108.867 101.739 141.559 101.664 143.212Z" fill="#CDDDC0"/>
<path d="M115.971 144.18C110.286 144.18 102.878 143.622 101.639 143.525L101.335 143.502L101.349 143.198C101.367 142.808 101.404 141.997 129.224 125.151C142.906 116.865 156.756 108.678 156.894 108.596L156.97 108.551L157.057 108.553C157.204 108.555 171.566 108.735 173.182 108.555C174.115 108.45 174.584 108.821 174.813 109.15C175.2 109.704 175.188 110.585 174.783 111.395C174.467 112.028 164.877 117.864 142.058 131.58C131.977 137.639 123.271 142.871 122.539 143.457C121.859 144.001 119.191 144.18 115.971 144.18ZM102.299 142.946C109.827 143.512 120.904 143.961 122.145 142.966C122.91 142.355 131.633 137.112 141.733 131.041C155.148 122.977 173.519 111.935 174.24 111.081C174.519 110.517 174.549 109.872 174.297 109.509C174.106 109.235 173.753 109.124 173.251 109.18C171.647 109.357 158.466 109.199 157.138 109.183C136.446 121.413 105.92 139.818 102.299 142.946Z" fill="#758B63"/>
<path d="M48.1956 108.225C48.1956 108.225 30.6944 108.652 29.2251 108.852C27.7558 109.051 27.572 110.153 27.7558 111.071C27.9395 111.99 79.9159 143.416 81.5689 143.865C83.222 144.314 101.663 143.212 101.663 143.212L48.1956 108.225Z" fill="#CDDDC0"/>
<path d="M83.7166 144.283C82.5899 144.283 81.7853 144.249 81.4862 144.168C80.4757 143.894 64.4637 134.297 53.9481 127.913C27.6047 111.921 27.4866 111.328 27.4472 111.132C27.3458 110.627 27.3119 109.903 27.726 109.323C28.0323 108.893 28.5224 108.63 29.1826 108.54C30.6524 108.341 47.4725 107.93 48.188 107.911L48.2862 107.909L48.3681 107.963L102.631 143.47L101.682 143.526C101.061 143.563 88.9374 144.283 83.7166 144.283ZM28.0518 110.942C29.7627 112.598 79.7014 142.997 81.6518 143.561C82.8921 143.9 95.0278 143.282 100.695 142.954L48.1056 108.543C46.6933 108.577 30.647 108.976 29.2672 109.163C28.7862 109.229 28.44 109.405 28.2387 109.688C27.9717 110.063 27.9848 110.564 28.0518 110.942Z" fill="#758B63"/>
<path d="M28.3432 109.816C31.2479 111.37 34.0318 113.205 36.8555 114.899C42.8591 118.499 48.8604 122.103 54.8617 125.707C60.921 129.346 66.9798 132.985 73.0408 136.62C75.1428 137.881 77.2447 139.141 79.3485 140.399C80.2956 140.965 81.259 141.695 82.2731 142.137C82.7143 142.33 83.3053 142.204 83.7764 142.19C85.2892 142.143 86.8019 142.095 88.3147 142.048C91.4253 141.951 94.5364 141.854 97.647 141.756C97.8529 141.75 98.0583 141.744 98.2642 141.737C98.7688 141.721 98.7711 140.935 98.2642 140.951C95.8514 141.026 93.4386 141.102 91.0257 141.177C89.2727 141.232 87.5192 141.287 85.7661 141.341C85.1032 141.362 84.4398 141.383 83.7768 141.403C83.446 141.414 82.9854 141.344 82.6663 141.438C82.4455 141.503 82.7962 141.583 82.6306 141.435C82.527 141.343 82.3641 141.279 82.2446 141.209C81.731 140.905 81.2187 140.599 80.7065 140.294C78.8145 139.164 76.9248 138.032 75.0346 136.899C69.1713 133.383 63.3112 129.864 57.4506 126.344C51.3058 122.655 45.1615 118.964 39.015 115.277C35.6704 113.271 32.3625 111.17 28.9591 109.263C28.8853 109.222 28.8143 109.177 28.7396 109.137C28.2943 108.898 27.8966 109.576 28.3432 109.816Z" fill="#758B63"/>
<path d="M81.9228 143.864C82.1554 143.223 82.388 142.581 82.6206 141.94C82.6908 141.746 82.5419 141.501 82.346 141.457C82.1247 141.407 81.9378 141.524 81.8622 141.732C81.6296 142.373 81.397 143.014 81.1644 143.655C81.0943 143.849 81.2432 144.094 81.4391 144.139C81.6608 144.189 81.8477 144.071 81.9228 143.864Z" fill="#758B63"/>
<path d="M103.713 142.03C106.995 142.265 110.283 142.402 113.572 142.431C115.166 142.445 116.76 142.434 118.352 142.398C119.024 142.384 119.956 142.527 120.58 142.272C121.299 141.979 121.995 141.415 122.656 141.014C126.539 138.663 130.422 136.312 134.304 133.96C139.8 130.632 145.297 127.303 150.793 123.974C155.841 120.917 160.889 117.86 165.937 114.802C167.654 113.763 169.37 112.723 171.087 111.684C171.9 111.191 172.773 110.742 173.55 110.192C173.586 110.167 173.626 110.146 173.664 110.123C174.096 109.862 173.701 109.182 173.267 109.445C171.209 110.691 169.151 111.938 167.093 113.184C162.277 116.1 157.461 119.017 152.646 121.933C147.11 125.286 141.575 128.638 136.04 131.991C131.811 134.551 127.582 137.113 123.354 139.673C122.384 140.261 121.414 140.848 120.444 141.435C120.371 141.48 120.285 141.555 120.203 141.582C120.188 141.587 120.176 141.603 120.161 141.607C120.031 141.643 119.753 141.575 119.586 141.58C119.124 141.594 118.661 141.607 118.199 141.616C114.961 141.685 111.721 141.652 108.486 141.517C106.894 141.451 105.303 141.359 103.714 141.244C103.208 141.207 103.211 141.994 103.713 142.03Z" fill="#758B63"/>
<path d="M24.1076 80.6694C24.8787 81.7663 25.8267 82.7646 26.6924 83.785C28.4966 85.9119 30.3112 88.0292 32.1276 90.1456C36.1921 94.8817 40.2675 99.6092 44.3533 104.327C45.424 105.563 46.4783 106.817 47.5752 108.03C47.9151 108.406 48.4699 107.849 48.1309 107.474C45.3783 104.43 42.7441 101.271 40.0634 98.1643C35.9993 93.454 31.9366 88.7419 27.906 84.0031C26.8978 82.818 25.5932 81.4197 24.7864 80.2721C24.4977 79.8617 23.8157 80.2545 24.1076 80.6694Z" fill="#758B63"/>
<path d="M155.314 107.834C161.606 100.013 168.212 92.4503 175.116 85.1652C175.464 84.7982 174.909 84.2412 174.56 84.6095C167.656 91.8951 161.049 99.4576 154.758 107.278C154.444 107.669 154.997 108.228 155.314 107.834Z" fill="#758B63"/>
<path d="M79.2511 128.756C86.8756 124.591 94.5001 120.426 102.125 116.261C102.569 116.019 102.173 115.34 101.728 115.583C94.1037 119.748 86.4788 123.913 78.8543 128.078C78.4104 128.32 78.8068 128.999 79.2511 128.756Z" fill="#758B63"/>
<path d="M101.728 116.262C109.242 120.113 116.553 124.344 124.067 128.195C124.516 128.426 124.914 127.748 124.464 127.516C116.95 123.665 109.638 119.434 102.125 115.583C101.676 115.352 101.278 116.031 101.728 116.262Z" fill="#758B63"/>
<path d="M102.202 116.21C102.67 105.824 102.569 95.4156 101.881 85.0416C101.686 82.0998 101.443 79.162 101.157 76.2279C101.108 75.7288 100.321 75.7238 100.371 76.2279C101.381 86.5748 101.823 96.975 101.679 107.371C101.638 110.318 101.549 113.265 101.416 116.21C101.392 116.716 102.179 116.715 102.202 116.21Z" fill="#758B63"/>
<path d="M102.23 184.571C102.229 173.729 102.125 162.887 102.078 152.045C102.065 149.101 102.057 146.157 102.057 143.213C102.057 142.707 101.271 142.706 101.271 143.213C101.272 154.055 101.376 164.897 101.423 175.739C101.435 178.683 101.444 181.627 101.444 184.571C101.444 185.077 102.23 185.077 102.23 184.571Z" fill="#758B63"/>
<path d="M120.23 142.11C120.453 142.683 120.803 143.201 121.279 143.594C121.362 143.662 121.446 143.709 121.557 143.709C121.653 143.709 121.768 143.666 121.835 143.594C121.967 143.449 122.004 143.177 121.835 143.038C121.738 142.958 121.645 142.873 121.559 142.783C121.516 142.739 121.475 142.694 121.436 142.647C121.415 142.623 121.394 142.598 121.374 142.573C121.366 142.562 121.333 142.52 121.372 142.57C121.414 142.626 121.369 142.567 121.363 142.559C121.213 142.357 121.088 142.139 120.989 141.908C121.002 141.939 121.015 141.97 121.029 142.002C121.015 141.969 121.002 141.936 120.988 141.903C120.95 141.804 120.902 141.723 120.808 141.668C120.724 141.618 120.599 141.598 120.505 141.628C120.32 141.687 120.151 141.905 120.23 142.11Z" fill="#758B63"/>
<path d="M60.4553 88.5152C65.1154 80.8151 69.3826 72.8833 73.2403 64.752C73.4562 64.2972 72.7783 63.8981 72.5616 64.3552C68.7038 72.4869 64.4366 80.4187 59.7765 88.1183C59.5141 88.5523 60.1933 88.9478 60.4553 88.5152Z" fill="#758B63"/>
<path d="M66.5561 83.4872C67.6105 82.0047 68.6649 80.5218 69.7197 79.0394C69.8428 78.8665 69.7505 78.6022 69.5785 78.5018C69.3812 78.3864 69.164 78.4692 69.0409 78.643C67.9866 80.1259 66.9322 81.6083 65.8774 83.0908C65.7543 83.2641 65.8466 83.5284 66.0186 83.6284C66.2158 83.7438 66.4331 83.6605 66.5561 83.4872Z" fill="#758B63"/>
<path d="M47.8531 139.356C47.8531 139.356 47.4273 147.978 47.8531 149.091C48.2789 150.205 59.4113 156.823 59.7828 155.664C60.1539 154.505 60.5793 147.662 60.0227 146.549C59.4661 145.435 47.9065 138.147 47.8531 139.356Z" fill="#83BC53"/>
<path d="M94.635 164.117C94.8124 163.929 95.1169 163.959 95.2577 164.175C96.0129 165.335 97.6234 168.282 97.0288 168.222C96.3157 168.151 95.9677 167.819 95.9677 167.819C95.9677 167.819 95.783 173.526 95.6111 173.524C95.092 173.516 94.0427 172.882 93.8997 172.383C93.7571 171.884 93.8997 166.893 93.8997 166.893C93.8997 166.893 92.8304 166.536 92.9014 166.179C92.9539 165.917 94.0571 164.726 94.635 164.117Z" fill="#2F2B28"/>
<path d="M89.9537 161.76C90.1311 161.573 90.4352 161.603 90.5764 161.818C91.3316 162.979 92.9422 165.925 92.3476 165.865C91.6344 165.794 91.2864 165.463 91.2864 165.463C91.2864 165.463 91.1018 171.169 90.9298 171.167C90.4108 171.159 89.3609 170.525 89.2184 170.026C89.0758 169.527 89.2184 164.536 89.2184 164.536C89.2184 164.536 88.1491 164.179 88.2201 163.823C88.2726 163.56 89.3759 162.369 89.9537 161.76Z" fill="#2F2B28"/>
<path d="M96.4478 175.433C96.4478 175.433 96.3283 177.002 96.1147 177.145C95.9007 177.287 88.1567 172.411 88.1567 172.411C87.8929 171.837 88.0336 171.2 88.116 170.58C88.2015 170.095 96.0862 174.761 96.4478 175.433Z" fill="#2F2B28"/>
<path d="M85.057 164.905C85.1991 164.816 86.0783 160.211 82.5306 157.547C78.9828 154.882 77.6384 160.845 77.8538 161.226C78.0683 161.606 84.2506 165.413 85.057 164.905Z" fill="#2F2B28"/>
<path d="M82.5613 168.025C82.1858 168.468 81.6224 168.034 81.3441 167.691C81.0259 167.299 81.0083 166.813 81.0223 166.328C81.0599 165.042 81.259 163.727 81.5844 162.482C81.7296 161.927 80.8703 161.69 80.725 162.246C80.5137 163.054 80.3807 163.883 80.2734 164.711C80.1779 165.448 80.0675 166.23 80.149 166.973C80.2254 167.669 80.5454 168.247 81.0929 168.687C81.7016 169.176 82.641 169.303 83.1913 168.655C83.5601 168.22 82.9329 167.586 82.5613 168.025Z" fill="#2F2B28"/>
<path d="M130.54 73.126C131.634 77.1665 133.375 81.0097 135.694 84.4946C135.974 84.9136 136.655 84.5204 136.373 84.0977C134.089 80.6654 132.376 76.8968 131.298 72.9169C131.166 72.4295 130.407 72.6363 130.54 73.126Z" fill="#758B63"/>
<path d="M95.6156 139.124C102.5 134.866 109.44 130.698 116.373 126.521C117.06 126.107 117.746 125.694 118.433 125.281C118.866 125.02 118.471 124.34 118.036 124.602C112.319 128.04 106.608 131.489 100.91 134.958C99.01 136.115 97.1112 137.275 95.2192 138.445C94.7893 138.711 95.1834 139.392 95.6156 139.124Z" fill="#758B63"/>
<path d="M76.6465 118.08C80.1806 113.056 83.3546 107.791 86.1458 102.319C86.3752 101.869 85.6973 101.471 85.467 101.922C82.6758 107.394 79.5019 112.659 75.9677 117.683C75.6758 118.098 76.3569 118.491 76.6465 118.08Z" fill="#758B63"/>
<path d="M23.8293 41.853C24.0686 37.4504 26.3353 33.3646 29.9948 29.9033C34.4666 25.6736 41.03 23.4386 47.0308 24.8102C53.0312 26.1818 58.0474 30.8635 60.3127 36.587C62.5464 42.2317 61.7757 49.8503 57.5374 54.848C57.5374 54.848 61.0173 61.743 59.5367 62.5842C58.9163 63.1951 54.1915 60.1031 52.6353 58.5708L52.6787 58.5283C47.5585 61.8086 40.496 63.5648 33.0457 59.4089C27.4811 56.3046 23.3926 49.8757 23.8293 41.853Z" fill="#83BC53"/>
<path d="M37.713 31.0268C37.713 31.0268 39.7177 45.8048 41.2196 46.6899C42.7215 47.5746 45.9041 46.7519 46.0919 46.2957C46.2797 45.8396 46.9707 29.8412 46.3937 29.801C38.2877 29.2358 37.713 31.0268 37.713 31.0268Z" fill="#CDDDC0"/>
<path d="M47.4503 51.067C48.2997 53.1042 47.3363 55.4442 45.2991 56.2936C43.2618 57.143 40.9214 56.1796 40.0725 54.1423C39.2231 52.1051 40.1865 49.7647 42.2237 48.9157C44.261 48.0668 46.601 49.0298 47.4503 51.067Z" fill="#CDDDC0"/>
<path d="M79.4407 41.2147C77.7112 37.929 76.7713 34.307 76.6813 30.595C76.4858 30.7072 76.2907 30.819 76.0952 30.9312C80.539 33.0065 84.9823 35.0817 89.4256 37.157C89.5975 37.2371 89.8695 37.2244 89.9582 37.0172C93.0204 29.8732 96.0826 22.7289 99.1443 15.5849C98.9072 15.5537 98.6701 15.5229 98.4325 15.4917C100.686 22.9886 102.94 30.486 105.193 37.9828C105.271 38.2426 105.535 38.32 105.765 38.2154C112.689 35.0713 119.327 31.3304 125.603 27.0355C125.412 26.8889 125.221 26.7423 125.031 26.5956C123.611 32.0802 122.19 37.5652 120.77 43.0497C120.69 43.3601 120.962 43.5746 121.249 43.5285C123.301 43.1995 125.231 42.6551 127.151 41.8704C129.07 41.0858 131.001 40.5409 133.052 40.2124C133.546 40.1332 133.336 39.3829 132.845 39.4617C130.794 39.7907 128.864 40.335 126.944 41.1197C125.024 41.9044 123.094 42.4492 121.043 42.7777C121.202 42.9375 121.362 43.0972 121.522 43.257C122.942 37.7724 124.362 32.2874 125.782 26.8029C125.862 26.4938 125.501 26.1639 125.21 26.3631C118.935 30.6579 112.297 34.3989 105.373 37.543C105.563 37.6204 105.754 37.6982 105.945 37.7756C103.691 30.2787 101.438 22.7814 99.1841 15.2845C99.0973 14.9958 98.6122 14.8654 98.4723 15.1912C95.4101 22.3356 92.3479 29.4796 89.2862 36.6235C89.4636 36.5769 89.6414 36.5303 89.8188 36.4837C85.3755 34.4084 80.9318 32.3331 76.4885 30.2579C76.2337 30.1389 75.8948 30.2764 75.9025 30.5941C75.9961 34.4446 76.9745 38.1987 78.7683 41.6071C79.0018 42.0514 79.6742 41.6587 79.4407 41.2147Z" fill="#2F2B28"/>
<path d="M136.452 38.4271C136.333 38.4058 136.215 38.3846 136.096 38.3633C136.045 38.347 135.993 38.3448 135.941 38.3565C135.889 38.3588 135.841 38.3742 135.796 38.4027C135.751 38.4271 135.714 38.4606 135.687 38.5031C135.652 38.5407 135.629 38.585 135.617 38.6357C135.612 38.6701 135.607 38.7045 135.603 38.7394C135.603 38.8095 135.621 38.8751 135.656 38.9357C135.676 38.962 135.697 38.9882 135.716 39.0145C135.765 39.0629 135.822 39.0959 135.888 39.1145C136.007 39.1358 136.126 39.157 136.244 39.1783C136.296 39.1946 136.348 39.1969 136.399 39.1851C136.451 39.1828 136.499 39.1674 136.544 39.1389C136.589 39.1145 136.626 39.081 136.653 39.0385C136.688 39.0009 136.711 38.9566 136.723 38.9059C136.727 38.8715 136.732 38.8371 136.737 38.8023C136.737 38.7321 136.719 38.6665 136.684 38.6059C136.664 38.5796 136.643 38.5534 136.623 38.5271C136.575 38.4792 136.518 38.4457 136.452 38.4271Z" fill="#2F2B28"/>
</svg>
