<svg width="341" height="319" viewBox="0 0 341 319" fill="none" xmlns="http://www.w3.org/2000/svg">
<path d="M67.8522 23.0006C62.532 27.4324 51.6585 33.3869 63.1495 34.3099C99.8632 37.2587 139.926 33.2799 176.92 35.3806C177.96 35.4397 180.964 35.3305 179.926 35.748C177.12 36.8773 174.043 37.4682 171.086 38.2733C156.855 42.1469 142.586 45.9252 128.478 50.1984C111.531 55.3313 95.2711 61.5926 78.9736 67.9597C64.8555 73.4754 49.2615 79.0174 36.9049 86.5832C36.4259 86.8764 33.5262 88.5587 34.6608 89.0614C35.711 89.5267 38.7132 89.4979 39.6542 89.4439C56.7073 88.4652 74.877 85.2454 92.033 83.1512C168.171 73.8573 242.312 69.5676 315.799 69.7248C320.077 69.7339 316.273 71.3042 313.509 72.5279C279.862 87.4259 244.452 100.099 210.664 114.944C173.403 131.314 136.382 148.17 100.052 165.619C98.775 166.233 65.6515 180.52 65.615 183.371C65.6027 184.33 91.1683 179.461 91.5179 179.402C126.894 173.415 162.34 167.289 197.648 162.812C218.439 160.176 239.343 157.999 259.877 156.774C262.195 156.636 266.913 155.384 266.646 156.876C266.559 157.36 265.48 157.715 264.767 158.005C255.129 161.936 245.09 165.23 235.313 168.947C187.201 187.239 139.348 206.269 92.4734 226.381C69.6421 236.177 43.3202 246.692 24.0322 260.048C20.273 262.651 27.8995 260.746 29.3114 260.51C57.0548 255.885 84.5446 251.81 111.937 250.18C124.222 249.448 138.512 248.506 149.855 250.108C156.469 251.042 138.549 260.718 136.975 261.731C131.568 265.213 115.258 272.197 118.184 277.441C123.628 287.199 152.131 284.252 155.075 295.241" stroke="#F5F8F2" stroke-width="46" stroke-linecap="round"/>
</svg>
