<svg width="24" height="24" viewBox="0 0 24 24" fill="none" xmlns="http://www.w3.org/2000/svg">
<path d="M12 4C11.3561 4 10.8216 4.49765 10.7757 5.13995L10.4282 10.0048C10.412 10.2316 10.2316 10.412 10.0048 10.4282L5.13995 10.7757C4.49765 10.8216 4 11.3561 4 12C4 12.6439 4.49765 13.1784 5.13995 13.2243L10.0048 13.5718C10.2316 13.588 10.412 13.7684 10.4282 13.9952L10.7757 18.86C10.8216 19.5024 11.3561 20 12 20C12.6439 20 13.1784 19.5024 13.2243 18.86L13.5718 13.9952C13.588 13.7684 13.7684 13.588 13.9952 13.5718L18.86 13.2243C19.5024 13.1784 20 12.6439 20 12C20 11.3561 19.5024 10.8216 18.86 10.7757L13.9952 10.4282C13.7684 10.412 13.588 10.2316 13.5718 10.0048L13.2243 5.13995C13.1784 4.49765 12.6439 4 12 4Z" fill="black"/>
</svg>
