<svg width="24" height="24" viewBox="0 0 24 24" fill="none" xmlns="http://www.w3.org/2000/svg">
<g clip-path="url(#clip0_4_1122)">
<path d="M16.9095 11.5723C16.9275 10.1698 17.6625 8.87452 18.8572 8.14027C18.1005 7.05877 16.8772 6.39802 15.558 6.35677C14.1697 6.21127 12.8242 7.18702 12.117 7.18702C11.3962 7.18702 10.3072 6.37102 9.13423 6.39502C7.59148 6.44527 6.18748 7.30102 5.43673 8.65027C3.83848 11.4178 5.03023 15.4858 6.56173 17.723C7.32823 18.8188 8.22298 20.042 9.39523 19.9993C10.542 19.952 10.9702 19.268 12.354 19.268C13.725 19.268 14.127 19.9993 15.3225 19.9715C16.5525 19.9513 17.328 18.8713 18.0675 17.765C18.618 16.9843 19.0417 16.1218 19.3222 15.209C17.8612 14.591 16.911 13.1593 16.9095 11.5723Z" fill="black"/>
<path d="M14.6512 4.88525C15.3217 4.07975 15.6525 3.04475 15.5722 2C14.5477 2.108 13.6005 2.59775 12.921 3.37175C12.2497 4.136 11.9092 5.135 11.9752 6.1505C13.014 6.161 14.0002 5.6945 14.6512 4.88525Z" fill="black"/>
</g>
<defs>
<clipPath id="clip0_4_1122">
<rect width="18" height="18" fill="white" transform="translate(3 2)"/>
</clipPath>
</defs>
</svg>
