<svg width="24" height="24" viewBox="0 0 24 24" fill="none" xmlns="http://www.w3.org/2000/svg">
<path fill-rule="evenodd" clip-rule="evenodd" d="M16.2365 17.9174C15.971 17.5994 16.0145 17.1262 16.3325 16.8614C17.5663 15.8287 20.4312 13.2899 21.413 11.9999C20.4147 10.6882 17.588 8.18618 16.3325 7.13843C16.0145 6.87368 15.971 6.40043 16.2365 6.08243C16.5013 5.76368 16.9745 5.72093 17.2933 5.98643C18.6725 7.13543 21.6425 9.73118 22.6932 11.2094C22.8575 11.4434 23 11.7074 23 11.9999C23 12.2924 22.8575 12.5564 22.6932 12.7897C21.6635 14.2387 18.644 16.8862 17.2933 18.0127L17.2925 18.0134C16.9745 18.2789 16.5013 18.2354 16.2365 17.9174Z" fill="black" stroke="black" stroke-width="0.4"/>
</svg>
