<svg width="24" height="24" viewBox="0 0 24 24" fill="none" xmlns="http://www.w3.org/2000/svg">
<path fill-rule="evenodd" clip-rule="evenodd" d="M7.82606 17.9174C8.09156 17.5994 8.04806 17.1262 7.73006 16.8614C6.49631 15.8287 3.63131 13.2899 2.64956 11.9999C3.64781 10.6882 6.47456 8.18618 7.73006 7.13843C8.04806 6.87368 8.09156 6.40043 7.82606 6.08243C7.56131 5.76368 7.08806 5.72093 6.76931 5.98643C5.39006 7.13543 2.42006 9.73118 1.36931 11.2094C1.20506 11.4434 1.06256 11.7074 1.06256 11.9999C1.06256 12.2924 1.20506 12.5564 1.36931 12.7897C2.39906 14.2387 5.41856 16.8862 6.76931 18.0127L6.77006 18.0134C7.08806 18.2789 7.56131 18.2354 7.82606 17.9174Z" fill="black" stroke="black" stroke-width="0.4"/>
</svg>
