<svg width="24" height="24" viewBox="0 0 24 24" fill="none" xmlns="http://www.w3.org/2000/svg">
<path fill-rule="evenodd" clip-rule="evenodd" d="M6.55108 15.4824C6.86908 15.7479 7.34232 15.7044 7.60707 15.3864C8.63982 14.1526 11.1786 11.2876 12.4686 10.3059C13.7803 11.3041 16.2823 14.1309 17.3301 15.3864C17.5948 15.7044 18.0681 15.7479 18.3861 15.4824C18.7048 15.2176 18.7476 14.7444 18.4821 14.4256C17.3331 13.0464 14.7373 10.0764 13.2591 9.02562C13.0251 8.86137 12.7611 8.71887 12.4686 8.71887C12.1761 8.71887 11.9121 8.86137 11.6788 9.02562C10.2298 10.0554 7.58232 13.0749 6.45582 14.4256L6.45508 14.4264C6.18957 14.7444 6.23307 15.2176 6.55108 15.4824Z" fill="black" stroke="black" stroke-width="0.4"/>
</svg>
