<svg width="24" height="24" viewBox="0 0 24 24" fill="none" xmlns="http://www.w3.org/2000/svg">
<path fill-rule="evenodd" clip-rule="evenodd" d="M18.3863 8.89275C18.0683 8.62725 17.5951 8.67075 17.3303 8.98875C16.2976 10.2225 13.7588 13.0875 12.4688 14.0692C11.1571 13.071 8.65508 10.2443 7.60733 8.98875C7.34258 8.67075 6.86933 8.62725 6.55133 8.89275C6.23258 9.1575 6.18983 9.63075 6.45533 9.9495C7.60433 11.3288 10.2001 14.2987 11.6783 15.3495C11.9123 15.5137 12.1763 15.6562 12.4688 15.6562C12.7613 15.6562 13.0253 15.5137 13.2586 15.3495C14.7076 14.3197 17.3551 11.3003 18.4816 9.9495L18.4823 9.94875C18.7478 9.63075 18.7043 9.1575 18.3863 8.89275Z" fill="black" stroke="black" stroke-width="0.4"/>
</svg>
