<svg width="24" height="24" viewBox="0 0 24 24" fill="none" xmlns="http://www.w3.org/2000/svg">
<path d="M4.125 8.40347C4.125 13.177 10.4563 19.5 15.225 19.5C16.2688 19.5 17.2438 19.1064 17.9625 18.3878L18.5875 17.6693C19.3125 16.9445 19.3125 15.7199 18.5563 14.9639C18.5375 14.9452 17.0313 13.7893 17.0313 13.7893C16.2813 13.077 15.1 13.077 14.3563 13.7893L13.4438 14.5203C11.4438 13.6706 10.025 12.246 9.1125 10.1779L9.8375 9.2657C10.5563 8.52218 10.5563 7.33505 9.8375 6.59153C9.8375 6.59153 8.68125 5.08575 8.6625 5.06701C7.90625 4.311 6.68125 4.311 5.925 5.06701L5.26875 5.63558C4.51875 6.3791 4.125 7.3538 4.125 8.39722V8.40347Z" fill="black"/>
</svg>
