<svg width="24" height="24" viewBox="0 0 24 24" fill="none" xmlns="http://www.w3.org/2000/svg">
<path d="M12 15.5001C13.3807 15.5001 14.5 14.3808 14.5 13.0001C14.5 11.6193 13.3807 10.5001 12 10.5001C10.6193 10.5001 9.5 11.6193 9.5 13.0001C9.5 14.3808 10.6193 15.5001 12 15.5001Z" fill="black"/>
<path fill-rule="evenodd" clip-rule="evenodd" d="M16.4806 6.19586C16.4924 6.44929 16.6869 6.65951 16.9387 6.691C20.5821 7.14677 21 8.63113 21 13.2501C21 19.4378 20.25 20.0001 12 20.0001C3.75 20.0001 3 19.4378 3 13.2501C3 8.63113 3.41791 7.14677 7.06133 6.691C7.31307 6.65951 7.50765 6.44929 7.51944 6.19586C7.6335 3.74553 8.34336 3.50006 12 3.50006C15.6566 3.50006 16.3665 3.74553 16.4806 6.19586ZM12 17.0001C14.2092 17.0001 16 15.2092 16 13.0001C16 10.7909 14.2092 9.00006 12 9.00006C9.79083 9.00006 8 10.7909 8 13.0001C8 15.2092 9.79083 17.0001 12 17.0001ZM18.5 10.0001C18.5 10.5523 18.0523 11.0001 17.5 11.0001C16.9477 11.0001 16.5 10.5523 16.5 10.0001C16.5 9.44778 16.9477 9.00006 17.5 9.00006C18.0523 9.00006 18.5 9.44778 18.5 10.0001Z" fill="black"/>
</svg>
