<svg width="24" height="24" viewBox="0 0 24 24" fill="none" xmlns="http://www.w3.org/2000/svg">
<path d="M18.1919 5.07681C17.7132 4.7392 17.1284 4.5853 16.5489 4.74059L8.0005 7.03112C7.56584 7.14759 7.35371 7.51501 7.47017 7.94967C7.58664 8.38434 7.95406 8.59647 8.38873 8.48L16.8647 6.20888C17.0095 6.17006 17.1738 6.20368 17.1933 6.27612C17.3045 6.4016 17.4158 6.52708 17.3822 6.69138L17.552 11.3822C17.6013 12.1455 17.0851 12.8273 16.3607 13.0214L11.7243 14.2637C10.9999 14.4578 10.3038 14.1785 9.8924 13.5122L8.82757 11.8564L5.96687 7.26545C5.27466 6.13096 3.97448 5.62525 2.74293 5.95524C2.30827 6.07171 2.09614 6.43913 2.21261 6.87379C2.32907 7.30846 2.69649 7.52059 3.13116 7.40412C3.71071 7.24883 4.40673 7.5282 4.70691 8.06893L5.66047 9.59926L8.63244 14.3157C9.34406 15.5227 10.7361 16.0814 12.1125 15.7126L16.8938 14.4314C18.3427 14.0432 19.23 12.7184 19.2235 11.2449L19.0536 6.5541C18.9901 6.02759 18.69 5.48686 18.1919 5.07681Z" fill="black"/>
<path d="M11.7265 16.5927C10.7123 16.8644 10.0759 17.9667 10.3477 18.9809C10.6194 19.9951 11.7217 20.6315 12.7359 20.3597C13.7501 20.088 14.3865 18.9857 14.1148 17.9715C13.843 16.9573 12.7407 16.3209 11.7265 16.5927ZM12.3477 18.9109C12.1304 18.9691 11.8548 18.81 11.7966 18.5927C11.7383 18.3753 11.8974 18.0998 12.1148 18.0415C12.3321 17.9833 12.6077 18.1424 12.6659 18.3597C12.7241 18.5771 12.565 18.8526 12.3477 18.9109Z" fill="black"/>
<path d="M17.4508 15.0588C16.4366 15.3306 15.8002 16.4329 16.072 17.4471C16.3437 18.4613 17.446 19.0977 18.4602 18.8259C19.4744 18.5542 20.1108 17.4519 19.839 16.4377C19.5673 15.4235 18.465 14.7871 17.4508 15.0588ZM18.072 17.377C17.8546 17.4353 17.5791 17.2762 17.5208 17.0589C17.4626 16.8415 17.6217 16.566 17.839 16.5077C18.0564 16.4495 18.3319 16.6086 18.3902 16.8259C18.4484 17.0432 18.2893 17.3188 18.072 17.377Z" fill="black"/>
</svg>
