<svg width="24" height="24" viewBox="0 0 24 24" fill="none" xmlns="http://www.w3.org/2000/svg">
<path d="M19.7748 6.89998C19.3998 6.44998 18.8748 6.14998 18.2748 6.14998H9.42483C8.97484 6.14998 8.67484 6.44998 8.67484 6.89998C8.67484 7.34997 8.97484 7.64997 9.42483 7.64997H18.1998C18.3498 7.64997 18.4998 7.72497 18.4998 7.79997C18.5748 7.94997 18.6498 8.09997 18.5748 8.24997L17.5248 12.8249C17.3748 13.5749 16.6998 14.0999 15.9498 14.0999H11.1498C10.3998 14.0999 9.79983 13.6499 9.57483 12.8999L8.97484 11.0249L7.39985 5.84998C7.02485 4.57499 5.89986 3.75 4.62487 3.75C4.17488 3.75 3.87488 4.05 3.87488 4.49999C3.87488 4.94999 4.17488 5.24999 4.62487 5.24999C5.22487 5.24999 5.82486 5.69998 5.97486 6.29998L6.49986 8.02497L8.14984 13.3499C8.52484 14.6999 9.72483 15.5999 11.1498 15.5999H16.0998C17.5998 15.5999 18.7998 14.5499 19.1748 13.1249L20.2247 8.54996C20.2997 8.02497 20.1497 7.42497 19.7748 6.89998Z" fill="black"/>
<path d="M10.5494 16.85C11.3232 16.8502 11.9996 17.5265 11.9996 18.3002C11.9995 19.0739 11.3231 19.7503 10.5494 19.7504C9.77563 19.7504 9.09933 19.074 9.09921 18.3002C9.09921 17.5264 9.77556 16.85 10.5494 16.85ZM10.5494 17.35C10.2743 17.35 10.0409 17.4826 9.88632 17.6371C9.75113 17.7723 9.6326 17.9677 9.60507 18.1987L9.59921 18.3002L9.60507 18.4008C9.63247 18.632 9.75103 18.828 9.88632 18.9633C10.0409 19.1178 10.2744 19.2504 10.5494 19.2504C10.8244 19.2504 11.058 19.1178 11.2125 18.9633C11.367 18.8088 11.4995 18.5753 11.4996 18.3002C11.4996 18.0252 11.367 17.7917 11.2125 17.6371C11.0772 17.5018 10.8812 17.3833 10.65 17.3559L10.5494 17.35Z" fill="black" stroke="black"/>
<path d="M16.4756 16.85C17.2494 16.8502 17.9258 17.5265 17.9258 18.3002C17.9257 19.0739 17.2493 19.7503 16.4756 19.7504C15.7018 19.7504 15.0255 19.074 15.0254 18.3002C15.0254 17.5264 15.7018 16.85 16.4756 16.85ZM16.4756 17.35C16.2005 17.35 15.9671 17.4826 15.8125 17.6371C15.6773 17.7723 15.5588 17.9677 15.5313 18.1987L15.5254 18.3002L15.5313 18.4008C15.5587 18.632 15.6772 18.828 15.8125 18.9633C15.9671 19.1178 16.2006 19.2504 16.4756 19.2504C16.7506 19.2504 16.9842 19.1178 17.1387 18.9633C17.2932 18.8088 17.4257 18.5753 17.4258 18.3002C17.4258 18.0252 17.2932 17.7917 17.1387 17.6371C17.0034 17.5018 16.8074 17.3833 16.5762 17.3559L16.4756 17.35Z" fill="black" stroke="black"/>
</svg>
