<svg width="24" height="24" viewBox="0 0 24 24" fill="none" xmlns="http://www.w3.org/2000/svg">
<path fill-rule="evenodd" clip-rule="evenodd" d="M10.0587 3.10487C10.4312 2.88727 10.9064 3.0191 11.1196 3.40028C11.3327 3.78066 11.2036 4.26586 10.8302 4.48345C9.62155 5.18704 8.47278 6.0153 7.44144 6.97061H18.2222C18.6516 6.97061 19 7.32638 19 7.76473C19 8.20308 18.6516 8.55884 18.2222 8.55884H7.44144C8.47278 9.51416 9.62155 10.3424 10.8302 11.046C11.2036 11.2636 11.3327 11.7488 11.1196 12.1292C10.9064 12.5104 10.4312 12.6422 10.0587 12.4246C8.37867 11.4423 6.27944 10.1328 5.20767 8.40558C5.14856 8.31028 5 8.06331 5 7.76473C5 7.46614 5.14856 7.21917 5.20767 7.12388C6.29889 5.36492 8.33511 4.1126 10.0587 3.10487Z" fill="black"/>
<path fill-rule="evenodd" clip-rule="evenodd" d="M13.9413 11.5754C13.5688 11.3578 13.0936 11.4896 12.8804 11.8708C12.6673 12.2512 12.7964 12.7364 13.1698 12.954C14.3784 13.6576 15.5272 14.4858 16.5586 15.4411H5.77778C5.34845 15.4411 5 15.7969 5 16.2352C5 16.6736 5.34845 17.0294 5.77778 17.0294H16.5586C15.5272 17.9847 14.3784 18.8129 13.1698 19.5165C12.7964 19.7341 12.6673 20.2193 12.8804 20.5997C13.0936 20.9809 13.5688 21.1127 13.9413 20.8951C15.6213 19.9128 17.7206 18.6033 18.7923 16.8761C18.8514 16.7808 19 16.5338 19 16.2352C19 15.9367 18.8514 15.6897 18.7923 15.5944C17.7011 13.8354 15.6649 12.5831 13.9413 11.5754Z" fill="black"/>
</svg>
