<svg width="24" height="24" viewBox="0 0 24 24" fill="none" xmlns="http://www.w3.org/2000/svg">
<path fill-rule="evenodd" clip-rule="evenodd" d="M21 12C21 16.9703 16.9703 21 12 21C7.02975 21 3 16.9703 3 12C3 7.02975 7.02975 3 12 3C16.9703 3 21 7.02975 21 12ZM10.995 12.1508C10.9849 12.1011 10.9799 12.0506 10.98 12V6.75C10.98 6.55109 11.059 6.36032 11.1997 6.21967C11.3403 6.07902 11.5311 6 11.73 6C11.9289 6 12.1197 6.07902 12.2603 6.21967C12.401 6.36032 12.48 6.55109 12.48 6.75V11.5688L16.002 13.602C16.1729 13.7022 16.2972 13.8658 16.3478 14.0573C16.3984 14.2488 16.3712 14.4525 16.2722 14.624C16.1732 14.7955 16.0103 14.9209 15.8192 14.9728C15.6281 15.0247 15.4242 14.9989 15.252 14.901L11.355 12.651C11.2629 12.5979 11.1832 12.5259 11.1211 12.4396C11.0591 12.3534 11.0161 12.2549 10.995 12.1508Z" fill="black"/>
</svg>
