<svg width="24" height="24" viewBox="0 0 24 24" fill="none" xmlns="http://www.w3.org/2000/svg">
<path fill-rule="evenodd" clip-rule="evenodd" d="M18.6667 12C18.6667 15.682 15.682 18.6667 12 18.6667C8.318 18.6667 5.33333 15.682 5.33333 12C5.33333 8.318 8.318 5.33333 12 5.33333C15.682 5.33333 18.6667 8.318 18.6667 12ZM20 12C20 16.418 16.418 20 12 20C7.582 20 4 16.418 4 12C4 7.582 7.582 4 12 4C16.418 4 20 7.582 20 12Z" fill="black"/>
<path fill-rule="evenodd" clip-rule="evenodd" d="M11.76 12.6667C11.5831 12.6667 11.4136 12.5964 11.2886 12.4714C11.1635 12.3464 11.0933 12.1768 11.0933 12V7.33335C11.0933 7.15654 11.1635 6.98697 11.2886 6.86195C11.4136 6.73693 11.5831 6.66669 11.76 6.66669C11.9368 6.66669 12.1063 6.73693 12.2314 6.86195C12.3564 6.98697 12.4266 7.15654 12.4266 7.33335V12C12.4266 12.1768 12.3564 12.3464 12.2314 12.4714C12.1063 12.5964 11.9368 12.6667 11.76 12.6667Z" fill="black"/>
<path fill-rule="evenodd" clip-rule="evenodd" d="M15.8012 14.3347C15.7128 14.4878 15.5672 14.5995 15.3964 14.6453C15.2257 14.6911 15.0437 14.6671 14.8906 14.5787L11.4266 12.5787C11.2747 12.4897 11.1642 12.3442 11.1192 12.174C11.0742 12.0038 11.0984 11.8227 11.1864 11.6702C11.2744 11.5178 11.4192 11.4063 11.5891 11.3602C11.759 11.3141 11.9402 11.337 12.0932 11.424L15.5572 13.424C15.7104 13.5124 15.8221 13.6581 15.8678 13.8288C15.9136 13.9996 15.8896 14.1816 15.8012 14.3347Z" fill="black"/>
</svg>
