<svg width="24" height="24" viewBox="0 0 24 24" fill="none" xmlns="http://www.w3.org/2000/svg">
<rect x="4" y="4" width="16" height="16" rx="8" fill="black"/>
<path fill-rule="evenodd" clip-rule="evenodd" d="M14.7803 10.2803C15.0732 9.98744 15.0732 9.51256 14.7803 9.21967C14.4875 8.92678 14.0126 8.92678 13.7197 9.21967L12 10.9393L10.2803 9.21967C9.98746 8.92678 9.51258 8.92678 9.2197 9.21967C8.9268 9.51256 8.9268 9.98744 9.2197 10.2803L10.9394 12L9.21968 13.7197C8.92677 14.0126 8.92677 14.4875 9.21968 14.7803C9.51256 15.0732 9.98744 15.0732 10.2803 14.7803L12 13.0607L13.7197 14.7803C14.0126 15.0732 14.4875 15.0732 14.7803 14.7803C15.0733 14.4875 15.0733 14.0126 14.7803 13.7197L13.0607 12L14.7803 10.2803Z" fill="white"/>
</svg>
