<svg width="24" height="24" viewBox="0 0 24 24" fill="none" xmlns="http://www.w3.org/2000/svg">
<path fill-rule="evenodd" clip-rule="evenodd" d="M7.53879 6.26431C7.18727 5.9119 6.61583 5.9119 6.26431 6.26431C5.9119 6.61583 5.9119 7.18727 6.26431 7.53879L10.7259 12.0003L6.26431 16.4619C5.9119 16.8134 5.9119 17.3839 6.26431 17.7364C6.61583 18.0879 7.18727 18.0879 7.53879 17.7364L12.0003 13.2748L16.4619 17.7364C16.8134 18.0879 17.3839 18.0879 17.7364 17.7364C18.0879 17.3839 18.0879 16.8134 17.7364 16.4619L13.2748 12.0003L17.7364 7.53879C18.0879 7.18727 18.0879 6.61583 17.7364 6.26431C17.3839 5.9119 16.8134 5.9119 16.4619 6.26431L12.0003 10.7259L7.53879 6.26431Z" fill="black"/>
</svg>
