<svg width="24" height="24" viewBox="0 0 24 24" fill="none" xmlns="http://www.w3.org/2000/svg">
<path fill-rule="evenodd" clip-rule="evenodd" d="M16.8988 17.6023H16.8977C11.0987 17.6023 6.3977 12.9013 6.3977 7.10233V7.10123C5.45498 8.35556 4.89771 9.91375 4.89771 11.6023C4.89771 15.7445 8.25555 19.1023 12.3977 19.1023C14.0863 19.1023 15.6445 18.5451 16.8988 17.6023ZM18.7147 15.9189C19.3922 15.78 20.006 16.4614 19.5898 17.0137C17.9474 19.1933 15.3371 20.6023 12.3977 20.6023C7.42715 20.6023 3.39771 16.5729 3.39771 11.6023C3.39771 8.66298 4.8068 6.05272 6.98633 4.41024C7.53863 3.99402 8.22008 4.60785 8.08118 5.28535C7.96088 5.87221 7.89773 6.47989 7.89773 7.10233C7.89773 12.0729 11.9272 16.1023 16.8977 16.1023C17.5202 16.1023 18.1278 16.0392 18.7147 15.9189Z" fill="black"/>
</svg>
