<svg width="24" height="24" viewBox="0 0 24 24" fill="none" xmlns="http://www.w3.org/2000/svg">
<path fill-rule="evenodd" clip-rule="evenodd" d="M6.29325 9.24C5.81625 9.14175 5.35725 9.516 5.3835 10.002C5.9895 21.0375 6.33675 21.0352 11.1443 21.0037C11.415 21.0022 11.7 21 12 21C12.3 21 12.585 21.0022 12.8558 21.0037C17.6633 21.0352 18.0105 21.0375 18.6165 10.002C18.6428 9.516 18.1838 9.14175 17.7075 9.24C17.549 9.27133 17.4054 9.35426 17.299 9.47583C17.1926 9.5974 17.1295 9.75077 17.1195 9.912C16.992 12.2325 16.8773 14.0445 16.7303 15.4672C16.5308 17.4052 16.2893 18.3795 16.0178 18.8917C15.849 19.2112 15.7013 19.3312 15.2175 19.4175C14.6805 19.5135 14.0063 19.5097 12.9533 19.5037H12.9518C12.3173 19.4988 11.6827 19.4988 11.0483 19.5037H11.0475C9.99375 19.5097 9.3195 19.5135 8.7825 19.4175C8.29875 19.3312 8.151 19.2112 7.98225 18.8917C7.71075 18.3795 7.46925 17.4052 7.26975 15.4672C7.12275 14.0445 7.008 12.2325 6.8805 9.912C6.87052 9.75087 6.8075 9.59758 6.70128 9.47603C6.59505 9.35447 6.45158 9.27148 6.29325 9.24Z" fill="black"/>
<path d="M4.5 7.5C4.5 7.30109 4.57902 7.11032 4.71967 6.96967C4.86032 6.82902 5.05109 6.75 5.25 6.75H18.75C18.9489 6.75 19.1397 6.82902 19.2803 6.96967C19.421 7.11032 19.5 7.30109 19.5 7.5C19.5 7.69891 19.421 7.88968 19.2803 8.03033C19.1397 8.17098 18.9489 8.25 18.75 8.25H5.25C5.05109 8.25 4.86032 8.17098 4.71967 8.03033C4.57902 7.88968 4.5 7.69891 4.5 7.5Z" fill="black"/>
<path fill-rule="evenodd" clip-rule="evenodd" d="M9.1875 5.97975C9.084 6.13875 9 6.375 9 6.75H7.5C7.5 6.1425 7.6395 5.60625 7.932 5.15925C8.2065 4.75725 8.65425 4.40475 9.07575 4.206C9.93 3.81525 11.0152 3.75 12 3.75C12.9847 3.75 14.07 3.81525 14.9243 4.206C15.3458 4.40475 15.7927 4.75725 16.068 5.15925C16.3605 5.60625 16.5 6.1425 16.5 6.75H15C15 6.375 14.916 6.13875 14.8125 5.97975C14.6918 5.77575 14.5695 5.68875 14.2995 5.57025C13.77 5.32725 12.9795 5.25 12 5.25C11.0205 5.25 10.23 5.32725 9.7005 5.57025C9.4305 5.68875 9.30825 5.77575 9.1875 5.97975Z" fill="black"/>
<path d="M9.033 10.5645C9.02766 10.4655 9.04201 10.3664 9.07521 10.273C9.1084 10.1796 9.15979 10.0936 9.2264 10.0202C9.29302 9.94678 9.37352 9.88728 9.46328 9.84516C9.55303 9.80304 9.65024 9.77913 9.74929 9.77482C9.84834 9.77051 9.94726 9.78587 10.0403 9.82003C10.1334 9.8542 10.2188 9.90647 10.2915 9.97384C10.3643 10.0412 10.4229 10.1223 10.4641 10.2125C10.5053 10.3027 10.5282 10.4001 10.5315 10.4992L10.7933 16.4932C10.7998 16.6907 10.7282 16.8828 10.5939 17.0277C10.4597 17.1727 10.2737 17.2588 10.0763 17.2674C9.87891 17.276 9.68611 17.2064 9.53977 17.0736C9.39343 16.9409 9.30538 16.7558 9.29475 16.5585L9.033 10.5645ZM13.467 10.4992C13.4776 10.3019 13.5657 10.1168 13.712 9.98408C13.8584 9.85134 14.0512 9.78171 14.2485 9.7903C14.4459 9.7989 14.6319 9.88503 14.7662 10.03C14.9004 10.1749 14.9721 10.367 14.9655 10.5645L14.7045 16.5592C14.6957 16.758 14.6084 16.9452 14.4616 17.0796C14.3148 17.214 14.1207 17.2846 13.9219 17.2758C13.7231 17.2671 13.5359 17.1797 13.4015 17.033C13.2671 16.8862 13.1965 16.692 13.2053 16.4932L13.467 10.4992Z" fill="black"/>
</svg>
