<svg width="24" height="24" viewBox="0 0 24 24" fill="none" xmlns="http://www.w3.org/2000/svg">
<path d="M5.6249 14.7495C7.07234 14.7495 8.24979 15.927 8.24979 17.3744C8.24979 18.8218 7.07234 19.9993 5.6249 19.9993C4.17746 19.9993 3.00001 18.8218 3.00001 17.3744C3.00001 15.927 4.17746 14.7495 5.6249 14.7495Z" fill="black"/>
<path d="M3.74997 13.2497C3.33524 13.2497 3 12.9137 3 12.4997C3 12.0857 3.33524 11.7497 3.74997 11.7497H5.62489C5.82588 11.7497 6.02537 11.7632 6.22262 11.7865L7.47956 8.5526C7.26282 8.67485 7.01608 8.74984 6.74909 8.74984C6.33511 8.74984 5.99913 8.41386 5.99913 7.99988V6.49994C5.99913 6.08595 6.33511 5.74997 6.74909 5.74997C7.41882 5.74997 7.97904 6.1917 8.17178 6.79768C8.65101 5.70422 9.70997 5 10.9129 5H11.2489C11.6636 5 11.9989 5.33599 11.9989 5.74997C11.9989 6.16395 11.6636 6.49994 11.2489 6.49994H10.9129C10.3002 6.49994 9.73847 6.88467 9.51498 7.45615L7.6798 12.175C8.37878 12.4742 9.017 12.9219 9.54273 13.5061L10.7727 14.9663C11.0577 15.3046 11.4776 15.4996 11.9201 15.4996H12.0919L13.7381 11.3852C14.1933 10.246 15.2965 9.49981 16.5234 9.49981H18.7501C19.9928 9.49981 21 10.507 21 11.7497V14.7496C21 15.7471 20.3468 16.5825 19.4483 16.878C19.4791 17.0407 19.5001 17.2057 19.5001 17.3745C19.5001 18.8219 18.3226 19.9994 16.8752 19.9994C15.4277 19.9994 14.2503 18.8219 14.2503 17.3745C14.2503 17.2477 14.2623 17.1232 14.2803 16.9995H11.9194C11.0352 16.9995 10.1967 16.6095 9.62747 15.933L8.41327 14.4909C7.70305 13.7019 6.68685 13.2497 5.62564 13.2497H3.74997Z" fill="black"/>
</svg>
