<svg width="24" height="24" viewBox="0 0 24 24" fill="none" xmlns="http://www.w3.org/2000/svg">
<path fill-rule="evenodd" clip-rule="evenodd" d="M16.286 4.71825C15.377 4.5375 14.192 4.5 12.5 4.5C10.808 4.5 9.623 4.5375 8.714 4.71825C7.8815 4.88025 7.53125 5.118 7.32425 5.36625C7.08425 5.65425 6.8435 6.18675 6.69125 7.314C6.5345 8.46225 6.5 9.9555 6.5 12C6.5 14.0437 6.5345 15.5377 6.69125 16.686C6.8435 17.8132 7.08425 18.3457 7.32425 18.6337C7.53125 18.882 7.8815 19.1197 8.714 19.2817C9.623 19.4625 10.808 19.5 12.5 19.5C14.192 19.5 15.377 19.4625 16.286 19.2817C17.1185 19.1197 17.4687 18.882 17.6757 18.6337C17.9157 18.3457 18.1565 17.8132 18.308 16.686C18.4655 15.5377 18.5 14.0437 18.5 12C18.5 9.9555 18.4655 8.46225 18.308 7.314C18.1565 6.18675 17.9157 5.65425 17.6757 5.36625C17.4687 5.118 17.1185 4.88025 16.286 4.71825ZM20 12C20 3.75 19.3752 3 12.5 3C5.62475 3 5 3.75 5 12C5 20.25 5.62475 21 12.5 21C19.3752 21 20 20.25 20 12Z" fill="black"/>
<path fill-rule="evenodd" clip-rule="evenodd" d="M7.625 8.25C7.625 8.05109 7.70402 7.86032 7.84467 7.71967C7.98532 7.57902 8.17609 7.5 8.375 7.5H16.625C16.8239 7.5 17.0147 7.57902 17.1553 7.71967C17.296 7.86032 17.375 8.05109 17.375 8.25C17.375 8.44891 17.296 8.63968 17.1553 8.78033C17.0147 8.92098 16.8239 9 16.625 9H8.375C8.17609 9 7.98532 8.92098 7.84467 8.78033C7.70402 8.63968 7.625 8.44891 7.625 8.25ZM7.625 12C7.625 11.8011 7.70402 11.6103 7.84467 11.4697C7.98532 11.329 8.17609 11.25 8.375 11.25H16.625C16.8239 11.25 17.0147 11.329 17.1553 11.4697C17.296 11.6103 17.375 11.8011 17.375 12C17.375 12.1989 17.296 12.3897 17.1553 12.5303C17.0147 12.671 16.8239 12.75 16.625 12.75H8.375C8.17609 12.75 7.98532 12.671 7.84467 12.5303C7.70402 12.3897 7.625 12.1989 7.625 12ZM7.625 15.75C7.625 15.5511 7.70402 15.3603 7.84467 15.2197C7.98532 15.079 8.17609 15 8.375 15H14.375C14.5739 15 14.7647 15.079 14.9053 15.2197C15.046 15.3603 15.125 15.5511 15.125 15.75C15.125 15.9489 15.046 16.1397 14.9053 16.2803C14.7647 16.421 14.5739 16.5 14.375 16.5H8.375C8.17609 16.5 7.98532 16.421 7.84467 16.2803C7.70402 16.1397 7.625 15.9489 7.625 15.75Z" fill="black"/>
</svg>
