<svg width="24" height="24" viewBox="0 0 24 24" fill="none" xmlns="http://www.w3.org/2000/svg">
<path d="M16.9646 13.3517C17.4093 13.9838 17.6317 14.2998 17.3869 14.8245C17.1421 15.3492 16.7336 15.3839 15.9165 15.4532C14.9705 15.5335 13.6798 15.6 12 15.6C10.3776 15.6 9.11827 15.538 8.18172 15.4614C7.30445 15.3897 6.86581 15.3538 6.61996 14.828C6.3741 14.3022 6.61587 13.9595 7.09941 13.2742C7.47674 12.7395 7.97424 12.0997 8.625 11.3647C9.44551 10.438 10.1321 9.78648 10.6671 9.33521C11.0749 8.99126 11.2788 8.81929 12.012 8.82081C12.7451 8.82233 12.9427 8.99034 13.3378 9.32636C13.8625 9.77264 14.5416 10.4234 15.375 11.3647C16.0682 12.1476 16.5835 12.8099 16.9646 13.3517Z" fill="black"/>
</svg>
