<svg width="24" height="24" viewBox="0 0 24 24" fill="none" xmlns="http://www.w3.org/2000/svg">
<path d="M7.03541 10.6483C6.59068 10.0162 6.36832 9.70016 6.6131 9.17549C6.85787 8.65081 7.2664 8.61614 8.08346 8.5468C9.02955 8.46651 10.3202 8.40002 12 8.40002C13.6224 8.40002 14.8817 8.46204 15.8183 8.53862C16.6956 8.61034 17.1342 8.6462 17.38 9.17202C17.6259 9.69784 17.3841 10.0405 16.9006 10.7258C16.5233 11.2605 16.0258 11.9003 15.375 12.6353C14.5545 13.562 13.8679 14.2135 13.3329 14.6648C12.9251 15.0087 12.7212 15.1807 11.988 15.1792C11.2549 15.1777 11.0573 15.0097 10.6623 14.6736C10.1375 14.2274 9.45845 13.5766 8.625 12.6353C7.93178 11.8524 7.41654 11.1901 7.03541 10.6483Z" fill="black"/>
</svg>
