<svg width="24" height="24" viewBox="0 0 24 24" fill="none" xmlns="http://www.w3.org/2000/svg">
<path fill-rule="evenodd" clip-rule="evenodd" d="M12 19.5C20.25 19.5 21 18.8752 21 12C21 5.12475 20.25 4.5 12 4.5C3.75 4.5 3 5.12475 3 12C3 18.8752 3.75 19.5 12 19.5ZM5.51175 8.4195C5.82 8.1615 6.279 8.20275 6.53625 8.5125C7.5375 9.71325 10.749 12.501 12 13.4565C13.272 12.4845 16.4482 9.73425 17.4637 8.5125C17.721 8.20275 18.18 8.1615 18.4882 8.4195C18.7972 8.6775 18.8385 9.13725 18.5812 9.447C18.06 10.0755 17.0663 11.0437 16.0095 12C17.0663 12.9563 18.06 13.9245 18.5812 14.553C18.8385 14.862 18.7972 15.3225 18.4882 15.5805C18.18 15.8385 17.721 15.7972 17.4637 15.4875C16.9672 14.889 15.9525 13.9253 14.8973 12.9833C14.0708 13.6958 13.2945 14.325 12.7665 14.7015C12.54 14.8612 12.2835 15 12 15C11.7165 15 11.46 14.8612 11.2343 14.7015C10.716 14.3325 9.93825 13.7002 9.108 12.9825C8.0475 13.9305 7.02675 14.8995 6.53625 15.4875C6.279 15.7972 5.82 15.8385 5.51175 15.5805C5.2035 15.3225 5.1615 14.8627 5.41875 14.553L5.4195 14.5522C5.93175 13.9358 6.933 12.963 7.9965 12C6.933 11.037 5.93175 10.0635 5.4195 9.44775L5.41875 9.447C5.1615 9.13725 5.2035 8.6775 5.51175 8.4195Z" fill="black"/>
</svg>
