<svg width="24" height="24" viewBox="0 0 24 24" fill="none" xmlns="http://www.w3.org/2000/svg">
<path fill-rule="evenodd" clip-rule="evenodd" d="M19.6888 16.0384C19.8852 15.0688 19.9259 13.8048 19.9259 12C19.9259 10.1952 19.8852 8.9312 19.6888 7.9616C19.5128 7.0736 19.2545 6.7 18.9848 6.4792C18.6719 6.2232 18.0934 5.9664 16.8687 5.804C15.6213 5.6368 13.999 5.6 11.7778 5.6C9.55741 5.6 7.9343 5.6368 6.68681 5.804C5.46215 5.9664 4.88363 6.2232 4.57074 6.4792C4.30104 6.7 4.04274 7.0736 3.86674 7.9616C3.67037 8.9312 3.62963 10.1952 3.62963 12C3.62963 13.8048 3.67037 15.0688 3.86674 16.0384C4.04274 16.9264 4.30104 17.3 4.57074 17.5208C4.88363 17.7768 5.46215 18.0336 6.68681 18.1952C7.9343 18.3632 9.55741 18.4 11.7778 18.4C13.999 18.4 15.6213 18.3632 16.8687 18.1952C18.0934 18.0336 18.6719 17.7768 18.9848 17.5208C19.2545 17.3 19.5128 16.9264 19.6888 16.0384ZM11.7778 20C20.7407 20 21.5556 19.3336 21.5556 12C21.5556 4.6664 20.7407 4 11.7778 4C2.81481 4 2 4.6664 2 12C2 19.3336 2.81481 20 11.7778 20ZM4.72882 8.1808C5.0637 7.9056 5.56237 7.9496 5.84185 8.28C6.92963 9.5608 10.4187 12.5344 11.7778 13.5536C13.1597 12.5168 16.6104 9.5832 17.7137 8.28C17.9932 7.9496 18.4919 7.9056 18.8267 8.1808C19.1624 8.456 19.2073 8.9464 18.9278 9.2768C18.3615 9.9472 17.2819 10.98 16.1338 12C17.2819 13.02 18.3615 14.0528 18.9278 14.7232C19.2073 15.0528 19.1624 15.544 18.8267 15.8192C18.4919 16.0944 17.9932 16.0504 17.7137 15.72C17.1743 15.0816 16.0719 14.0536 14.9254 13.0488C14.0275 13.8088 13.1841 14.48 12.6105 14.8816C12.3644 15.052 12.0858 15.2 11.7778 15.2C11.4698 15.2 11.1911 15.052 10.9459 14.8816C10.3828 14.488 9.53785 13.8136 8.63585 13.048C7.4837 14.0592 6.37474 15.0928 5.84185 15.72C5.56237 16.0504 5.0637 16.0944 4.72882 15.8192C4.39393 15.544 4.3483 15.0536 4.62778 14.7232L4.62859 14.7224C5.18511 14.0648 6.27289 13.0272 7.4283 12C6.27289 10.9728 5.18511 9.9344 4.62859 9.2776L4.62778 9.2768C4.3483 8.9464 4.39393 8.456 4.72882 8.1808Z" fill="black"/>
</svg>
