<svg width="24" height="24" viewBox="0 0 24 24" fill="none" xmlns="http://www.w3.org/2000/svg">
<path fill-rule="evenodd" clip-rule="evenodd" d="M18.875 12C18.875 15.7971 15.7971 18.875 12 18.875C8.20294 18.875 5.125 15.7971 5.125 12C5.125 8.20294 8.20294 5.125 12 5.125C15.7971 5.125 18.875 8.20294 18.875 12ZM20.25 12C20.25 16.5561 16.5561 20.25 12 20.25C7.44394 20.25 3.75 16.5561 3.75 12C3.75 7.44394 7.44394 3.75 12 3.75C16.5561 3.75 20.25 7.44394 20.25 12Z" fill="black"/>
<path fill-rule="evenodd" clip-rule="evenodd" d="M15.8892 8.11071C15.9949 8.21637 16.0633 8.35358 16.084 8.50157C16.1047 8.64957 16.0766 8.80028 16.004 8.93089L13.573 13.3061C13.5107 13.4182 13.4183 13.5106 13.3063 13.5729L8.93102 16.0039C8.80041 16.0765 8.64967 16.1047 8.50165 16.084C8.35363 16.0633 8.21638 15.9949 8.1107 15.8892C8.00501 15.7835 7.93665 15.6463 7.91595 15.4983C7.89526 15.3502 7.92337 15.1995 7.99602 15.0689L10.427 10.6936C10.4893 10.5816 10.5817 10.4892 10.6938 10.4269L15.069 7.99589C15.1996 7.92329 15.3504 7.89522 15.4983 7.91594C15.6463 7.93666 15.7835 8.00503 15.8892 8.11071ZM11.5332 11.5331L10.3665 13.6334L12.4668 12.4667L13.6335 10.3664L11.5332 11.5331Z" fill="black"/>
</svg>
