<svg width="24" height="24" viewBox="0 0 24 24" fill="none" xmlns="http://www.w3.org/2000/svg">
<path fill-rule="evenodd" clip-rule="evenodd" d="M18.6407 10.2206C19.6235 13.8883 17.447 17.658 13.7794 18.6408C10.1117 19.6235 6.342 17.4471 5.35925 13.7794C4.3765 10.1117 6.55293 6.34202 10.2206 5.35927C13.8883 4.37652 17.658 6.55295 18.6407 10.2206ZM19.9689 9.86476C21.1481 14.2656 18.5361 18.7897 14.1352 19.9689C9.73443 21.1481 5.2103 18.5361 4.0311 14.1353C2.8519 9.73445 5.46391 5.21032 9.86473 4.03112C14.2656 2.85193 18.7897 5.46394 19.9689 9.86476Z" fill="black" stroke="black" stroke-width="0.4"/>
<path fill-rule="evenodd" clip-rule="evenodd" d="M14.7501 7.23668C14.8795 7.31139 14.981 7.42623 15.0393 7.56382C15.0977 7.70141 15.1096 7.85425 15.0732 7.99921L13.8575 12.8546C13.8263 12.9789 13.761 13.0921 13.6688 13.1813L10.0719 16.6618C9.96451 16.7658 9.82619 16.832 9.67785 16.8503C9.52952 16.8686 9.37926 16.8381 9.24982 16.7634C9.12038 16.6886 9.01882 16.5738 8.96052 16.4361C8.90223 16.2985 8.89036 16.1456 8.92673 16.0007L10.1425 11.1453C10.1737 11.021 10.239 10.9078 10.3311 10.8186L13.9281 7.33806C14.0355 7.23413 14.1738 7.16801 14.3221 7.14972C14.4704 7.13142 14.6206 7.16195 14.7501 7.23668ZM11.4283 11.6699L10.8449 14.0006L12.5717 12.33L13.155 9.99932L11.4283 11.6699Z" fill="black" stroke="black" stroke-width="0.4"/>
</svg>
