<svg width="24" height="24" viewBox="0 0 24 24" fill="none" xmlns="http://www.w3.org/2000/svg">
<path fill-rule="evenodd" clip-rule="evenodd" d="M7.70062 6.75C7.95998 7.19835 8.44477 7.5 9 7.5C9.55523 7.5 10.04 7.19835 10.2994 6.75C10.3061 6.73843 10.3126 6.72676 10.319 6.71499C10.4344 6.50245 10.5 6.25889 10.5 6C10.5 5.72686 10.427 5.47077 10.2994 5.25018C10.0401 4.80183 9.55523 4.5 9 4.5C8.44477 4.5 7.95998 4.80165 7.70062 5.25C7.69395 5.26157 7.68742 5.27324 7.68105 5.28501C7.56563 5.49755 7.5 5.74111 7.5 6C7.5 6.27314 7.57312 6.52941 7.70062 6.75ZM18.75 6.75H11.122C11.2049 6.51541 11.25 6.26298 11.25 6C11.25 5.73702 11.2049 5.48458 11.122 5.25H18.75C19.1642 5.25 19.5 5.58578 19.5 6C19.5 6.41421 19.1642 6.75 18.75 6.75ZM6.87803 6.75C6.79515 6.51541 6.75 6.26298 6.75 6C6.75 5.73702 6.79515 5.48458 6.87803 5.25H5.25C4.83578 5.25 4.5 5.58578 4.5 6C4.5 6.41421 4.83578 6.75 5.25 6.75H6.87803ZM13.7007 12.75C13.96 13.1983 14.4448 13.5 15 13.5C15.5552 13.5 16.04 13.1983 16.2993 12.75C16.306 12.7385 16.3126 12.7268 16.319 12.715C16.4344 12.5024 16.5 12.2589 16.5 12C16.5 11.7269 16.427 11.4708 16.2994 11.2502C16.0401 10.8018 15.5552 10.5 15 10.5C14.4448 10.5 13.96 10.8017 13.7007 11.25C13.694 11.2616 13.6874 11.2732 13.681 11.285C13.5656 11.4976 13.5 11.7411 13.5 12C13.5 12.2731 13.5731 12.5294 13.7007 12.75ZM18.75 12.75H17.122C17.2049 12.5154 17.25 12.2629 17.25 12C17.25 11.737 17.2049 11.4846 17.122 11.25H18.75C19.1642 11.25 19.5 11.5858 19.5 12C19.5 12.4142 19.1642 12.75 18.75 12.75ZM12.878 12.75C12.7951 12.5154 12.75 12.2629 12.75 12C12.75 11.737 12.7951 11.4846 12.878 11.25H5.25C4.83578 11.25 4.5 11.5858 4.5 12C4.5 12.4142 4.83578 12.75 5.25 12.75H12.878ZM12 19.5C11.4448 19.5 10.96 19.1983 10.7006 18.75C10.5731 18.5294 10.5 18.2732 10.5 18C10.5 17.7411 10.5656 17.4976 10.681 17.285C10.6874 17.2732 10.6939 17.2615 10.7006 17.25C10.96 16.8017 11.4448 16.5 12 16.5C12.5552 16.5 13.04 16.8017 13.2993 17.25C13.4269 17.4706 13.5 17.7268 13.5 18C13.5 18.2589 13.4344 18.5024 13.319 18.715C13.3126 18.7268 13.306 18.7385 13.2993 18.75C13.04 19.1983 12.5552 19.5 12 19.5ZM14.122 18.75H18.75C19.1642 18.75 19.5 18.4142 19.5 18C19.5 17.5858 19.1642 17.25 18.75 17.25H14.122C14.2049 17.4846 14.25 17.7371 14.25 18C14.25 18.2629 14.2049 18.5154 14.122 18.75ZM9.75 18C9.75 18.2629 9.79515 18.5154 9.87803 18.75H5.25C4.83578 18.75 4.5 18.4142 4.5 18C4.5 17.5858 4.83578 17.25 5.25 17.25H9.87803C9.79515 17.4846 9.75 17.7371 9.75 18Z" fill="black"/>
</svg>
