<svg width="24" height="24" viewBox="0 0 24 24" fill="none" xmlns="http://www.w3.org/2000/svg">
<path d="M13.8398 12.6615C14.2628 13.086 14.4961 13.6493 14.4961 14.2493C14.4961 14.8492 14.2613 15.4155 13.8361 15.84C12.9886 16.6913 11.5058 16.6898 10.6553 15.84C10.2308 15.4155 9.99606 14.8507 9.99606 14.2493C9.99606 13.6477 10.2301 13.083 10.6471 12.6667L11.9881 11.3655C12.0608 11.2942 12.1553 11.259 12.2491 11.259C12.3428 11.259 12.4366 11.295 12.5093 11.3655L13.8398 12.6615ZM18.0796 18.5835C16.5211 20.1413 14.4488 21 12.2461 21C10.0433 21 7.97106 20.1413 6.41256 18.5835C3.19581 15.366 3.19581 10.1325 6.41256 6.91575L9.40656 4.14975C10.1588 3.414 11.1721 3 12.2461 3C13.3201 3 14.3333 3.414 15.1013 4.16475L18.0586 6.89625C21.2963 10.1333 21.2963 15.3667 18.0796 18.5835ZM15.9961 14.25C15.9961 13.248 15.6053 12.306 14.8973 11.5987L14.8906 11.592L13.5556 10.2915C12.8243 9.5805 11.6768 9.579 10.9433 10.29L9.59481 11.5987C8.88681 12.306 8.49606 13.248 8.49606 14.25C8.49606 15.252 8.88681 16.194 9.59481 16.9012C10.3028 17.6093 11.2448 18 12.2461 18C13.2473 18 14.1901 17.6093 14.8973 16.9012C15.6053 16.194 15.9961 15.252 15.9961 14.25Z" fill="black"/>
</svg>
