<svg width="24" height="24" viewBox="0 0 24 24" fill="none" xmlns="http://www.w3.org/2000/svg">
<path fill-rule="evenodd" clip-rule="evenodd" d="M19.6666 12C19.6666 15.682 16.682 18.6667 13 18.6667C10.2267 18.6667 7.84934 16.9733 6.84467 14.5647L5.61334 15.078C6.82 17.968 9.672 20 13 20C17.418 20 21 16.418 21 12C21 7.582 17.418 4 13 4C8.582 4 5.00001 7.582 5.00001 12H6.33334C6.33334 8.318 9.318 5.33333 13 5.33333C16.682 5.33333 19.6666 8.318 19.6666 12Z" fill="black"/>
<path fill-rule="evenodd" clip-rule="evenodd" d="M5.19532 13.138C5.32034 13.263 5.48988 13.3332 5.66665 13.3332C5.84343 13.3332 6.01297 13.263 6.13798 13.138L8.13798 11.138C8.19992 11.0761 8.24906 11.0026 8.2826 10.9217C8.31614 10.8409 8.33342 10.7542 8.33345 10.6666C8.33348 10.579 8.31626 10.4923 8.28278 10.4114C8.2493 10.3305 8.20021 10.257 8.13831 10.195C8.07642 10.1331 8.00293 10.0839 7.92204 10.0504C7.84115 10.0169 7.75445 9.99958 7.66688 9.99955C7.57932 9.99952 7.4926 10.0167 7.41169 10.0502C7.33078 10.0837 7.25726 10.1328 7.19532 10.1947L6.40332 11.0567H5.05199L4.13866 10.1947C4.01356 10.0696 3.8439 9.99932 3.66699 9.99932C3.49008 9.99932 3.32042 10.0696 3.19532 10.1947C3.07023 10.3198 2.99995 10.4894 2.99995 10.6664C2.99995 10.8433 3.07023 11.0129 3.19532 11.138L5.19532 13.138ZM5.97465 14.2087C5.81142 14.2764 5.68173 14.4061 5.61411 14.5694C5.54648 14.7326 5.54643 14.9161 5.61399 15.0794L6.84598 14.5694C6.81247 14.4884 6.76334 14.4149 6.70141 14.353C6.63948 14.2911 6.56595 14.242 6.48504 14.2085C6.40412 14.175 6.3174 14.1578 6.22983 14.1578C6.14225 14.1578 6.05554 14.1751 5.97465 14.2087ZM12.76 12.6667C12.5832 12.6667 12.4136 12.5964 12.2886 12.4714C12.1635 12.3464 12.0933 12.1768 12.0933 12V7.33335C12.0933 7.15654 12.1635 6.98697 12.2886 6.86195C12.4136 6.73693 12.5832 6.66669 12.76 6.66669C12.9368 6.66669 13.1063 6.73693 13.2314 6.86195C13.3564 6.98697 13.4266 7.15654 13.4266 7.33335V12C13.4266 12.1768 13.3564 12.3464 13.2314 12.4714C13.1063 12.5964 12.9368 12.6667 12.76 12.6667Z" fill="black"/>
<path fill-rule="evenodd" clip-rule="evenodd" d="M16.8014 14.3347C16.713 14.4878 16.5674 14.5995 16.3966 14.6453C16.2258 14.6911 16.0439 14.6671 15.8907 14.5787L12.4267 12.5787C12.2749 12.4897 12.1644 12.3442 12.1194 12.174C12.0744 12.0038 12.0985 11.8227 12.1866 11.6702C12.2746 11.5178 12.4193 11.4063 12.5892 11.3602C12.7591 11.3141 12.9404 11.337 13.0934 11.424L16.5574 13.424C16.7105 13.5124 16.8222 13.6581 16.868 13.8288C16.9138 13.9996 16.8898 14.1816 16.8014 14.3347Z" fill="black"/>
</svg>
