<svg width="24" height="24" viewBox="0 0 24 24" fill="none" xmlns="http://www.w3.org/2000/svg">
<path fill-rule="evenodd" clip-rule="evenodd" d="M12 3.75C11.7315 3.75 11.448 3.86175 11.2523 3.948C11.0295 4.0455 10.7453 4.1925 10.4445 4.36425C9.85275 4.7025 9.096 5.19075 8.286 5.76225C6.67425 6.90075 4.74975 8.44125 3.21975 9.96975C2.9265 10.2622 2.9265 10.7378 3.21975 11.0302C3.51225 11.3235 3.98775 11.3235 4.28025 11.0302C5.75025 9.55875 7.57575 8.09925 9.1515 6.98775C9.93525 6.43425 10.632 5.985 11.1885 5.667C11.4623 5.51025 11.6753 5.39925 11.8538 5.322C11.922 5.292 11.9693 5.274 12 5.2635C12.0308 5.274 12.078 5.292 12.1455 5.322C12.3248 5.39925 12.5378 5.51025 12.8115 5.667C13.368 5.985 14.0648 6.43425 14.8485 6.98775C16.4243 8.09925 18.2498 9.55875 19.7198 11.0302C20.0123 11.3235 20.4878 11.3235 20.7803 11.0302C21.0735 10.7378 21.0735 10.2622 20.7803 9.96975C19.2503 8.44125 17.3258 6.90075 15.714 5.76225C14.904 5.19075 14.1473 4.7025 13.5555 4.36425C13.2548 4.1925 12.9705 4.0455 12.7478 3.948C12.5513 3.86175 12.2685 3.75 12 3.75ZM14.9505 18.612C15.0885 18.591 15.219 18.5662 15.3435 18.5385L15.354 18.5363C16.0463 18.3863 16.3223 18.1747 16.4955 17.9437C16.7145 17.6512 16.9373 17.1015 17.076 15.957L17.0768 15.9548C17.2005 14.9445 17.2403 13.6695 17.2485 12C17.25 11.586 17.586 11.25 18 11.25C18.414 11.25 18.75 11.586 18.7485 12C18.7095 19.5457 17.9948 20.25 12 20.25C6.00525 20.25 5.2905 19.5457 5.2515 12C5.25 11.586 5.586 11.25 6 11.25C6.414 11.25 6.75 11.586 6.7515 12C6.75975 13.6695 6.7995 14.9445 6.92325 15.9548L6.924 15.957C7.06275 17.1015 7.2855 17.6512 7.5045 17.9437C7.67775 18.1747 7.95375 18.3863 8.64675 18.5363L8.6565 18.5385C8.781 18.5662 8.9115 18.591 9.0495 18.612C9.01275 18.021 9 17.3235 9 16.5C9 12.6503 9.3 12 12 12C14.7 12 15 12.6503 15 16.5C15 17.3235 14.9873 18.021 14.9505 18.612ZM13.4393 18.732C13.4858 18.1455 13.5 17.427 13.5 16.5C13.5 15.5565 13.485 14.8807 13.4213 14.3475V14.346C13.3605 13.83 13.2743 13.6553 13.2503 13.6163C13.2495 13.6155 13.2495 13.6147 13.2495 13.614C13.248 13.6103 13.2443 13.6073 13.2405 13.6073C13.2263 13.6065 13.209 13.605 13.1858 13.6005C13.1828 13.5998 13.179 13.599 13.1768 13.5983C12.9233 13.5157 12.6135 13.4985 12.0008 13.5H11.9993C11.3865 13.4985 11.0768 13.5157 10.8233 13.5983C10.8203 13.599 10.8173 13.5998 10.8143 13.6005C10.791 13.605 10.773 13.6065 10.7595 13.6073C10.7558 13.6073 10.752 13.6103 10.7505 13.614C10.7505 13.6155 10.7505 13.6155 10.7498 13.6163C10.7258 13.6553 10.6395 13.83 10.5788 14.346V14.3475C10.515 14.8807 10.5 15.5565 10.5 16.5C10.5 17.427 10.5143 18.1455 10.56 18.732C10.9868 18.7455 11.463 18.75 12 18.75C12.5363 18.75 13.0125 18.7455 13.4393 18.732Z" fill="black"/>
</svg>
