<svg width="24" height="24" viewBox="0 0 24 24" fill="none" xmlns="http://www.w3.org/2000/svg">
<path fill-rule="evenodd" clip-rule="evenodd" d="M9.86475 4.03111C9.6054 4.10061 9.36048 4.28193 9.19372 4.4159C9.0038 4.56773 8.76728 4.78329 8.52123 5.02703C8.03719 5.50691 7.43259 6.17438 6.79811 6.93605C5.53594 8.45291 4.07573 10.439 2.99347 12.3114C2.78591 12.6699 2.90898 13.1292 3.26794 13.3358C3.62638 13.5433 4.08567 13.4203 4.29231 13.0613C5.33137 11.2595 6.71692 9.37725 7.9513 7.89579C8.56509 7.1583 9.12182 6.54402 9.57705 6.09283C9.80091 5.87057 9.97792 5.70822 10.1303 5.5874C10.1885 5.54076 10.2295 5.51114 10.2565 5.49304C10.2889 5.49523 10.3392 5.50038 10.4122 5.51189C10.6053 5.54012 10.8398 5.59221 11.1448 5.67276C11.7646 5.83589 12.5539 6.08951 13.4542 6.4213C15.2639 7.08709 17.405 8.02438 19.2057 9.06528C19.5642 9.27283 20.0234 9.14976 20.2301 8.7908C20.4376 8.43237 20.3146 7.97307 19.9556 7.76644C18.0821 6.68601 15.8245 5.6961 13.973 5.01355C13.0427 4.67116 12.1854 4.39541 11.5262 4.22184C11.1913 4.13378 10.8787 4.06536 10.6383 4.02884C10.4261 3.99638 10.1241 3.96162 9.86475 4.03111ZM16.5613 17.6231C16.6891 17.5671 16.8088 17.5094 16.9219 17.4503L16.9314 17.4455C17.5613 17.1214 17.7731 16.8457 17.8807 16.5777C18.0165 16.2385 18.0894 15.6498 17.9272 14.5084L17.9273 14.506C17.7854 13.4982 17.4938 12.2563 17.0697 10.6416C16.964 10.2413 17.2016 9.8298 17.6014 9.72264C18.0013 9.61549 18.4129 9.85308 18.5186 10.2534C20.4339 17.5521 19.9257 18.4173 14.1353 19.9689C8.34478 21.5204 7.47211 21.0252 5.48145 13.7466C5.37285 13.3471 5.61044 12.9356 6.01034 12.8285C6.41023 12.7213 6.82174 12.9589 6.93034 13.3584C7.37041 14.9689 7.7388 16.1902 8.11981 17.134L8.12111 17.1359C8.55135 18.2055 8.9088 18.6789 9.19604 18.9047C9.42317 19.083 9.74451 19.2159 10.4527 19.1814L10.4627 19.1811C10.5902 19.1757 10.7226 19.1658 10.8614 19.1503C10.6729 18.589 10.48 17.9186 10.2669 17.1231C9.27052 13.4046 9.392 12.6988 12 12C14.608 11.3012 15.0661 11.8516 16.0625 15.5702C16.2756 16.3657 16.4438 17.0427 16.5613 17.6231ZM15.1326 18.1301C15.0257 17.5516 14.8535 16.8539 14.6136 15.9584C14.3694 15.0471 14.18 14.3982 13.9804 13.8997L13.98 13.8982C13.7878 13.4155 13.6592 13.2691 13.626 13.2376C13.6251 13.2371 13.6249 13.2363 13.6247 13.2356C13.6222 13.2324 13.6178 13.2305 13.6142 13.2314C13.6003 13.2344 13.5832 13.2374 13.5596 13.2391C13.5565 13.2391 13.5527 13.2394 13.5503 13.2392C13.2841 13.2252 12.9804 13.2887 12.389 13.4487L12.3875 13.4491C11.7952 13.6062 11.5005 13.7031 11.277 13.8484C11.2743 13.8499 11.2716 13.8514 11.2689 13.8529C11.2476 13.8632 11.2306 13.8693 11.2178 13.8736C11.2141 13.8745 11.2113 13.8784 11.2108 13.8824C11.2112 13.8839 11.2112 13.8839 11.2107 13.8848C11.1976 13.9287 11.1595 14.1198 11.2344 14.6339L11.2348 14.6354C11.3112 15.1669 11.4716 15.8235 11.7158 16.7349C11.9557 17.6303 12.1555 18.3206 12.3514 18.8753C12.7671 18.7779 13.2283 18.659 13.747 18.52C14.265 18.3812 14.7239 18.2536 15.1326 18.1301Z" fill="black" stroke="black" stroke-width="0.4"/>
</svg>
