<svg width="24" height="24" viewBox="0 0 24 24" fill="none" xmlns="http://www.w3.org/2000/svg">
<path fill-rule="evenodd" clip-rule="evenodd" d="M12 15.4375C11.7016 15.4375 11.4155 15.556 11.2045 15.767C10.9935 15.978 10.875 16.2641 10.875 16.5625C10.875 16.8609 10.9935 17.147 11.2045 17.358C11.4155 17.569 11.7016 17.6875 12 17.6875C12.2984 17.6875 12.5845 17.569 12.7955 17.358C13.0065 17.147 13.125 16.8609 13.125 16.5625C13.125 16.2641 13.0065 15.978 12.7955 15.767C12.5845 15.556 12.2984 15.4375 12 15.4375ZM12 8.31251C12.414 8.31251 12.75 8.60651 12.75 8.96876L12.75 13.6563C12.75 14.0185 12.414 14.3125 12 14.3125C11.586 14.3125 11.25 14.0185 11.25 13.6563L11.25 8.96876C11.25 8.60651 11.586 8.31251 12 8.31251Z" fill="black"/>
<path fill-rule="evenodd" clip-rule="evenodd" d="M10.0445 3.3957C10.5735 2.78701 11.199 2.39397 12.0577 2.39705C12.9115 2.40012 13.5314 2.78794 14.0536 3.39337C14.5241 3.93878 14.9696 4.72565 15.4909 5.64633L15.528 5.71177C16.2177 6.92957 17.0288 8.42559 17.9615 10.2448C18.9123 12.0994 19.6931 13.6555 20.3266 14.9398L20.3569 15.0013C20.8632 16.0275 21.2858 16.8843 21.4989 17.6027C21.7276 18.3739 21.756 19.1194 21.3206 19.8357C20.8859 20.5509 20.2139 20.8696 19.4262 21.0219C18.6935 21.1636 17.7431 21.1828 16.6059 21.2058L16.5373 21.2072C15.2675 21.2329 13.7611 21.25 12 21.25C10.2013 21.25 8.66835 21.2322 7.38172 21.2055L7.31292 21.2041C6.18692 21.1809 5.2443 21.1614 4.51661 21.0194C3.73267 20.8664 3.06539 20.5468 2.63192 19.8336C2.1987 19.1208 2.22158 18.3821 2.44629 17.6165C2.65476 16.9062 3.07075 16.0621 3.56746 15.0543L3.5979 14.9925C4.2608 13.6473 5.07365 12.0512 6.04431 10.2337C6.9765 8.48815 7.81188 6.99225 8.52957 5.74593C8.54204 5.72427 8.55447 5.70268 8.56686 5.68116C9.10636 4.74415 9.56546 3.94676 10.0445 3.3957ZM11.1766 4.37975C10.8048 4.80744 10.4167 5.47462 9.82945 6.49447C9.11959 7.72719 8.29198 9.20912 7.36744 10.9403C6.40476 12.7429 5.59935 14.3244 4.9434 15.6555C4.4082 16.7416 4.05298 17.4685 3.88558 18.0389C3.73017 18.5685 3.77679 18.8292 3.91373 19.0545C4.05042 19.2794 4.26059 19.4411 4.80395 19.5471C5.38878 19.6613 6.1997 19.6808 7.41276 19.7059C8.68861 19.7323 10.2112 19.75 12 19.75C13.7514 19.75 15.2477 19.733 16.507 19.7075C17.7308 19.6827 18.5505 19.6635 19.1414 19.5492C19.692 19.4427 19.9031 19.28 20.0388 19.0566C20.1739 18.8343 20.2215 18.5713 20.0608 18.0292C19.8886 17.4486 19.5259 16.7072 18.9814 15.6034C18.3515 14.3264 17.5742 12.7773 16.6267 10.9291C15.7027 9.12696 14.9014 7.6493 14.2228 6.45095C13.6538 5.44634 13.2796 4.79256 12.9178 4.3731C12.5966 4.00077 12.3595 3.89815 12.0523 3.89704C11.75 3.89596 11.5092 3.99705 11.1766 4.37975Z" fill="black"/>
</svg>
