<svg width="24" height="24" viewBox="0 0 24 24" fill="none" xmlns="http://www.w3.org/2000/svg">
<path fill-rule="evenodd" clip-rule="evenodd" d="M19.5 12C19.5 16.1423 16.1423 19.5 12 19.5C7.85775 19.5 4.5 16.1423 4.5 12C4.5 7.85775 7.85775 4.5 12 4.5C16.1423 4.5 19.5 7.85775 19.5 12ZM21 12C21 16.9703 16.9703 21 12 21C7.02975 21 3 16.9703 3 12C3 7.02975 7.02975 3 12 3C16.9703 3 21 7.02975 21 12Z" fill="black"/>
<path fill-rule="evenodd" clip-rule="evenodd" d="M12 9.5625C12.2984 9.5625 12.5845 9.44397 12.7955 9.233C13.0065 9.02202 13.125 8.73587 13.125 8.4375C13.125 8.13913 13.0065 7.85298 12.7955 7.642C12.5845 7.43103 12.2984 7.3125 12 7.3125C11.7016 7.3125 11.4155 7.43103 11.2045 7.642C10.9935 7.85298 10.875 8.13913 10.875 8.4375C10.875 8.73587 10.9935 9.02202 11.2045 9.233C11.4155 9.44397 11.7016 9.5625 12 9.5625ZM12 16.6875C11.586 16.6875 11.25 16.3935 11.25 16.0312V11.3438C11.25 10.9815 11.586 10.6875 12 10.6875C12.414 10.6875 12.75 10.9815 12.75 11.3438V16.0312C12.75 16.3935 12.414 16.6875 12 16.6875Z" fill="black"/>
</svg>
