<svg width="24" height="24" viewBox="0 0 24 24" fill="none" xmlns="http://www.w3.org/2000/svg">
<path fill-rule="evenodd" clip-rule="evenodd" d="M11.25 3C11.25 2.586 11.586 2.25 12 2.25C12.414 2.25 12.75 2.586 12.75 3V4.5C12.75 4.914 12.414 5.25 12 5.25C11.586 5.25 11.25 4.914 11.25 4.5V3ZM6.84075 5.03025C6.54825 4.73775 6.0735 4.73775 5.78025 5.03025C5.48775 5.3235 5.48775 5.79825 5.78025 6.09075L6.84075 7.152C7.134 7.4445 7.60875 7.4445 7.902 7.152C8.1945 6.85875 8.1945 6.384 7.902 6.09075L6.84075 5.03025ZM14.1068 13.8202C14.6558 13.2308 15 12.4095 15 11.382C15 9.61125 13.6163 8.25 12 8.25C10.3838 8.25 9 9.61125 9 11.382C9 12.5347 9.25125 13.1797 9.876 13.8C10.521 14.4405 11.1315 15.3645 11.235 16.5H12.7695C12.888 15.3457 13.5375 14.4323 14.1068 13.8202ZM15.2048 14.8425C14.6775 15.408 14.25 16.1002 14.25 16.8735C14.25 17.4952 13.746 18 13.1235 18H10.911C10.2698 18 9.75 17.4802 9.75 16.839C9.75 16.0822 9.35625 15.3975 8.81925 14.8643C7.848 13.8997 7.5 12.8362 7.5 11.382C7.5 8.82375 9.5145 6.75 12 6.75C14.4855 6.75 16.5 8.82375 16.5 11.382C16.5 12.7627 16.029 13.9568 15.2048 14.8425ZM12.573 18.75C13.1415 18.75 13.1558 18.8445 12.6075 18.9953L10.02 19.707C9.8835 19.7437 9.75 19.641 9.75 19.5C9.75 19.3365 9.8025 19.185 9.89175 19.0613C9.9585 18.969 10.0658 18.9187 10.1753 18.8888L10.599 18.7755C10.662 18.7583 10.7273 18.75 10.7925 18.75H12.573ZM9.7515 20.6505C9.77175 20.94 10.107 21.036 10.3868 20.961L13.839 20.0355C14.0813 19.971 14.25 19.7512 14.25 19.5C14.25 19.3013 14.0348 19.2067 13.8428 19.2585L9.9855 20.292C9.84675 20.3288 9.75 20.4548 9.75 20.5988C9.75 20.616 9.75075 20.6333 9.7515 20.6505ZM12.3878 21.75C12.4538 21.75 12.519 21.741 12.582 21.7245L13.4348 21.4958C13.5135 21.4747 13.5885 21.441 13.6568 21.3953L13.9163 21.2228C14.1248 21.0833 14.25 20.8493 14.25 20.5988C14.25 20.5492 14.2035 20.5133 14.1555 20.526L10.7153 21.4485C10.6335 21.4702 10.6163 21.5775 10.686 21.624C10.809 21.7065 10.9538 21.75 11.1023 21.75H12.3878ZM18.4013 5.03025C18.1088 4.73775 17.634 4.73775 17.3408 5.03025L16.2803 6.09075C15.9878 6.384 15.9878 6.85875 16.2803 7.152C16.5735 7.4445 17.0483 7.4445 17.3408 7.152L18.402 6.09075C18.6945 5.79825 18.6938 5.3235 18.4013 5.03025ZM20.2493 10.5C20.6633 10.5 20.9993 10.836 20.9993 11.25C20.9993 11.664 20.6633 12 20.2493 12H18.7493C18.3353 12 17.9993 11.664 17.9993 11.25C17.9993 10.836 18.3353 10.5 18.7493 10.5H20.2493ZM5.99925 11.25C5.99925 10.836 5.66325 10.5 5.24925 10.5H3.74925C3.33525 10.5 2.99925 10.836 2.99925 11.25C2.99925 11.664 3.33525 12 3.74925 12H5.24925C5.66325 12 5.99925 11.664 5.99925 11.25Z" fill="black"/>
</svg>
