<svg width="24" height="24" viewBox="0 0 24 24" fill="none" xmlns="http://www.w3.org/2000/svg">
<path fill-rule="evenodd" clip-rule="evenodd" d="M11.9865 10.1835L10.926 9.123C9.657 7.85475 8.523 7.5 7.674 7.5C6.7965 7.5 6.04275 7.87725 5.547 8.373C4.353 9.567 4.13175 10.6395 4.29 11.589C4.46625 12.6442 5.154 13.785 6.22425 14.898C7.29825 16.0238 8.55525 16.9252 9.7635 17.61C10.3552 17.9482 10.8532 18.1868 11.31 18.3608C11.568 18.4613 11.7975 18.51 11.9167 18.5355L11.9865 18.5505L12.0555 18.5355C12.1747 18.51 12.405 18.4613 12.663 18.3608C13.119 18.1868 13.6177 17.9482 14.2095 17.61C15.4177 16.9252 16.6748 16.0238 17.7488 14.898C18.819 13.785 19.5067 12.6442 19.6822 11.589C19.8405 10.6395 19.62 9.567 18.426 8.373C17.8595 7.81351 17.0952 7.49985 16.299 7.5C15.45 7.5 14.316 7.85475 13.047 9.123L11.9865 10.1835ZM11.9865 8.0625C14.9865 5.0625 17.9865 5.8125 19.4865 7.3125C25.4865 13.3125 14.2365 20.0625 11.9865 20.0625C9.7365 20.0625 -1.5135 13.3125 4.4865 7.3125C5.9865 5.8125 8.9865 5.0625 11.9865 8.0625Z" fill="black"/>
</svg>
