<svg width="24" height="24" viewBox="0 0 24 24" fill="none" xmlns="http://www.w3.org/2000/svg">
<path fill-rule="evenodd" clip-rule="evenodd" d="M11.2495 10.2805L9.95062 9.53062C8.39661 8.63402 7.20944 8.58486 6.38937 8.8046C5.54177 9.03171 4.91134 9.59119 4.56079 10.1984C3.71651 11.6607 3.78038 12.7539 4.17898 13.6301C4.62235 14.6038 5.58191 15.5277 6.90376 16.3257C8.23253 17.1352 9.68002 17.6806 11.0243 18.0293C11.6835 18.2029 12.2262 18.3044 12.7124 18.3542C12.9877 18.3845 13.222 18.3722 13.3437 18.366L13.415 18.3624L13.4778 18.3301C13.5864 18.2746 13.7961 18.1679 14.0193 18.004C14.4148 17.7179 14.8348 17.3585 15.3188 16.8786C16.3087 15.9045 17.2895 14.7083 18.0356 13.343C18.7813 11.9909 19.1504 10.711 19.0468 9.64631C18.9539 8.6882 18.4633 7.70932 17.001 6.86503C16.3089 6.47124 15.4895 6.36606 14.7205 6.57229C13.9004 6.79202 12.8969 7.42819 11.9993 8.98166L11.2495 10.2805ZM10.7005 8.23178C12.8218 4.55754 15.9137 4.50553 17.7508 5.56619C25.0993 9.80883 15.9797 19.2405 13.8063 19.8229C11.633 20.4052 -0.980692 16.7969 3.26195 9.44848C4.32261 7.61136 7.02627 6.11046 10.7005 8.23178Z" fill="black" stroke="black" stroke-width="0.4"/>
</svg>
