<svg width="24" height="24" viewBox="0 0 24 24" fill="none" xmlns="http://www.w3.org/2000/svg">
<path fill-rule="evenodd" clip-rule="evenodd" d="M12 3C8.27205 3 5.25 6.02208 5.25 9.75C5.25 12.2276 6.19294 14.4365 7.31823 16.1942C8.44478 17.954 9.78165 19.3052 10.6397 20.0825C11.4194 20.789 12.5806 20.789 13.3604 20.0825C14.2184 19.3052 15.5552 17.954 16.6818 16.1942C17.807 14.4365 18.75 12.2276 18.75 9.75C18.75 6.02208 15.728 3 12 3ZM14.25 9.75C14.25 10.9927 13.2427 12 12 12C10.7573 12 9.75 10.9927 9.75 9.75C9.75 8.50733 10.7573 7.5 12 7.5C13.2427 7.5 14.25 8.50733 14.25 9.75Z" fill="black"/>
</svg>
