<svg width="24" height="24" viewBox="0 0 24 24" fill="none" xmlns="http://www.w3.org/2000/svg">
<path fill-rule="evenodd" clip-rule="evenodd" d="M20.781 11.4698C21.0735 11.7623 21.0735 12.2378 20.781 12.5303L17.781 15.5303C17.4878 15.8235 17.013 15.8235 16.7197 15.5303C16.4272 15.2378 16.4272 14.7623 16.7197 14.4698L18.4395 12.75H9.75C9.336 12.75 9 12.414 9 12C9 11.586 9.336 11.25 9.75 11.25H18.4395L16.7197 9.53025C16.4272 9.23775 16.4272 8.76225 16.7197 8.46975C17.013 8.1765 17.4878 8.1765 17.781 8.46975L20.781 11.4698Z" fill="black"/>
<path fill-rule="evenodd" clip-rule="evenodd" d="M8.99925 6H9.00075C10.275 5.99925 11.145 6.03375 11.8283 6.1875C11.832 6.18825 11.8358 6.189 11.8395 6.18975C12.4313 6.3195 12.6668 6.4965 12.8078 6.66825V6.669C12.981 6.8805 13.1813 7.2945 13.317 8.20125L13.3178 8.2035C13.323 8.2395 13.3283 8.27625 13.3335 8.31375C13.3875 8.70075 13.7093 9 14.1 9C14.538 9 14.8868 8.62425 14.8298 8.19C14.4053 4.941 13.026 4.5 9 4.5C3.75 4.5 3 5.25 3 12C3 18.75 3.75 19.5 9 19.5C13.026 19.5 14.4053 19.059 14.8298 15.81C14.8868 15.3757 14.538 15 14.1 15C13.7093 15 13.3875 15.2993 13.3335 15.6863C13.3283 15.7238 13.323 15.7605 13.3178 15.7965L13.317 15.7987C13.1813 16.7055 12.981 17.1202 12.8078 17.3317C12.6668 17.5035 12.4313 17.6805 11.8395 17.8102C11.8358 17.811 11.832 17.8118 11.8283 17.8125C11.145 17.9655 10.275 18 9.00075 18H8.99925C7.725 18 6.855 17.9655 6.17175 17.8125C6.168 17.8118 6.16425 17.811 6.1605 17.8102C5.56875 17.6805 5.33325 17.5035 5.19225 17.3317C5.019 17.1202 4.81875 16.7055 4.683 15.7995C4.683 15.7995 4.683 15.7973 4.68225 15.7958C4.5405 14.8605 4.5 13.6597 4.5 12C4.5 10.3403 4.5405 9.1395 4.68225 8.20425C4.683 8.20275 4.683 8.2005 4.683 8.2005C4.81875 7.2945 5.019 6.8805 5.19225 6.669V6.66825C5.33325 6.4965 5.56875 6.3195 6.1605 6.18975C6.16425 6.189 6.168 6.18825 6.17175 6.1875C6.855 6.03375 7.725 5.99925 8.99925 6Z" fill="black"/>
</svg>
