<svg width="24" height="24" viewBox="0 0 24 24" fill="none" xmlns="http://www.w3.org/2000/svg">
<path fill-rule="evenodd" clip-rule="evenodd" d="M21 11.25C21 16.125 20.2815 17.25 12.375 17.25C11.9873 17.25 11.6175 17.247 11.2635 17.2418C11.2627 17.2418 11.262 17.2417 11.262 17.2425L7.91625 19.473C7.4175 19.8053 6.75 19.4475 6.75 18.8483V16.8135C6.75 16.812 6.7485 16.8105 6.747 16.8097C4.07925 16.1325 3.75 14.5507 3.75 11.25C3.75 6.375 4.4685 5.25 12.375 5.25C20.2815 5.25 21 6.375 21 11.25ZM8.625 12.75C9.246 12.75 9.75 12.246 9.75 11.625C9.75 11.004 9.246 10.5 8.625 10.5C8.004 10.5 7.5 11.004 7.5 11.625C7.5 12.246 8.004 12.75 8.625 12.75ZM16.125 12.75C16.746 12.75 17.25 12.246 17.25 11.625C17.25 11.004 16.746 10.5 16.125 10.5C15.504 10.5 15 11.004 15 11.625C15 12.246 15.504 12.75 16.125 12.75ZM13.5 11.625C13.5 12.246 12.996 12.75 12.375 12.75C11.754 12.75 11.25 12.246 11.25 11.625C11.25 11.004 11.754 10.5 12.375 10.5C12.996 10.5 13.5 11.004 13.5 11.625Z" fill="black"/>
</svg>
