<svg width="24" height="24" viewBox="0 0 24 24" fill="none" xmlns="http://www.w3.org/2000/svg">
<path fill-rule="evenodd" clip-rule="evenodd" d="M19.306 13.8922C19.47 13.242 19.5004 12.4345 19.5 11.25C19.5004 10.0654 19.47 9.258 19.306 8.60779C19.1775 8.01436 19.105 7.85211 18.7428 7.61466C18.4472 7.38925 17.9026 7.14973 16.8298 6.98446C15.73 6.8129 14.317 6.7496 12.375 6.75C10.4329 6.7496 9.01998 6.8129 7.92026 6.98446C6.8474 7.14973 6.3028 7.38925 6.00721 7.61466C5.64502 7.85211 5.57248 8.01436 5.44397 8.60779C5.27999 9.258 5.24961 10.0654 5.25 11.25C5.25 12.9384 5.35229 13.8317 5.60794 14.3805C5.77837 14.7463 6.07438 15.0915 7.11618 15.3559C7.75171 15.5173 8.25 16.0937 8.25 16.8135V17.4472L10.4296 15.9941C10.6271 15.883 11.0609 15.7552 11.288 15.7418C11.6351 15.7474 11.9931 15.75 12.375 15.75C14.317 15.7504 15.73 15.6871 16.8298 15.5155C17.9026 15.3502 18.4472 15.1108 18.7428 14.8853C19.105 14.6479 19.1775 14.4856 19.306 13.8922ZM21 11.25C21 16.125 20.2813 17.25 12.375 17.25C11.9876 17.25 11.6174 17.2473 11.2638 17.2416L11.2617 17.2422L7.91602 19.4727C7.4176 19.8049 6.75 19.4476 6.75 18.8486V16.8135C6.75 16.8118 6.74877 16.8103 6.74711 16.8098C4.07956 16.1327 3.75 14.551 3.75 11.25C3.75 6.375 4.46876 5.25 12.375 5.25C20.2813 5.25 21 6.375 21 11.25Z" fill="black"/>
</svg>
