<svg width="24" height="24" viewBox="0 0 24 24" fill="none" xmlns="http://www.w3.org/2000/svg">
<path fill-rule="evenodd" clip-rule="evenodd" d="M10.5004 12.0346C10.4958 11.8349 10.5312 11.6362 10.6045 11.4504C10.6777 11.2645 10.7874 11.0951 10.927 10.9522C11.0666 10.8092 11.2334 10.6957 11.4175 10.6181C11.6017 10.5405 11.7994 10.5005 11.9993 10.5004C12.1991 10.5003 12.3969 10.5401 12.5811 10.6175C12.7653 10.6949 12.9322 10.8083 13.0719 10.9511C13.2117 11.0939 13.3215 11.2631 13.395 11.449C13.4684 11.6348 13.504 11.8334 13.4996 12.0331C13.4911 12.4251 13.3294 12.7981 13.0493 13.0723C12.7691 13.3465 12.3928 13.5002 12.0008 13.5004C11.6087 13.5006 11.2322 13.3473 10.9518 13.0733C10.6714 12.7994 10.5094 12.4266 10.5004 12.0346ZM10.5004 7.53465C10.4958 7.33489 10.5312 7.13624 10.6045 6.95035C10.6777 6.76447 10.7874 6.59509 10.927 6.45216C11.0667 6.30924 11.2334 6.19565 11.4175 6.11807C11.6017 6.04048 11.7994 6.00047 11.9993 6.00037C12.1991 6.00027 12.3969 6.04009 12.5811 6.11749C12.7653 6.19489 12.9322 6.30831 13.0719 6.45109C13.2117 6.59387 13.3215 6.76314 13.395 6.94896C13.4684 7.13477 13.504 7.33339 13.4996 7.53315C13.4911 7.92507 13.3294 8.29807 13.0493 8.57229C12.7691 8.84651 12.3928 9.00017 12.0008 9.00037C11.6087 9.00056 11.2322 8.84728 10.9518 8.57334C10.6714 8.2994 10.5094 7.92656 10.5004 7.53465ZM10.5004 16.5346C10.4958 16.3349 10.5312 16.1362 10.6045 15.9504C10.6777 15.7645 10.7874 15.5951 10.927 15.4522C11.0666 15.3092 11.2334 15.1957 11.4175 15.1181C11.6017 15.0405 11.7994 15.0005 11.9993 15.0004C12.1991 15.0003 12.3969 15.0401 12.5811 15.1175C12.7653 15.1949 12.9322 15.3083 13.0719 15.4511C13.2117 15.5939 13.3215 15.7631 13.395 15.949C13.4684 16.1348 13.504 16.3334 13.4996 16.5331C13.4911 16.9251 13.3294 17.2981 13.0493 17.5723C12.7691 17.8465 12.3928 18.0002 12.0007 18.0004C11.6087 18.0006 11.2322 17.8473 10.9518 17.5733C10.6714 17.2994 10.5094 16.9266 10.5004 16.5346Z" fill="black"/>
</svg>
