<svg width="24" height="24" viewBox="0 0 24 24" fill="none" xmlns="http://www.w3.org/2000/svg">
<path d="M18.4386 3.59837C18.9436 3.09343 19.7622 3.09343 20.2672 3.59838C20.7721 4.10332 20.7721 4.922 20.2672 5.42695L5.68782 20.0063C5.18287 20.5113 4.36419 20.5113 3.85925 20.0063C3.3543 19.5014 3.3543 18.6827 3.85925 18.1777L18.4386 3.59837Z" fill="black"/>
<path d="M14.9517 5.44916C14.0395 5.1775 13.0502 5.01079 12 5C8.88552 5.03199 6.3062 6.43549 4.68483 7.88031C3.86238 8.62152 3.18983 9.44116 2.76254 10.0955C2.5432 10.4342 2.35316 10.7854 2.2342 11.0576C2.12051 11.3201 2 11.6628 2 12C2 12.3372 2.12051 12.6799 2.2342 12.9424C2.35316 13.2146 2.5432 13.5658 2.76254 13.9045C3.1529 14.5023 3.74794 15.238 4.47498 15.9259L5.88896 14.5119C5.24579 13.9197 4.7817 13.3435 4.43916 12.8142C4.2622 12.5436 4.15181 12.3401 4.06943 12.1475C4.04023 12.0801 4.02279 12.0316 4.0125 12C4.02279 11.9684 4.04023 11.9199 4.06943 11.8525C4.15181 11.6599 4.2622 11.4564 4.43916 11.1858C4.80449 10.6213 5.30807 10.0035 6.01971 9.36969C7.46653 8.06451 9.38721 6.96802 12 7C12.4603 6.99437 12.8992 7.02376 13.3177 7.08315L14.9517 5.44916Z" fill="black"/>
<path d="M9.07635 11.3245C9.33279 10.2101 10.2101 9.3328 11.3245 9.07636L9.07635 11.3245Z" fill="black"/>
<path d="M14.9882 12.2678L12.2678 14.9882C13.711 14.8606 14.8606 13.711 14.9882 12.2678Z" fill="black"/>
<path d="M10.3866 16.8694C10.893 16.9603 11.43 17.007 12 17C14.6128 17.032 16.5335 15.9355 17.9803 14.6303C18.6919 13.9965 19.1955 13.3787 19.5608 12.8142C19.7378 12.5436 19.8482 12.3401 19.9306 12.1475C19.9598 12.0801 19.9772 12.0316 19.9875 12C19.9772 11.9684 19.9598 11.9199 19.9306 11.8525C19.8482 11.6599 19.7378 11.4564 19.5608 11.1858C19.1955 10.6213 18.6919 10.0035 17.9803 9.36969C17.9638 9.35485 17.9473 9.34003 17.9307 9.32524L19.347 7.90903C20.1549 8.64264 20.8157 9.4496 21.2375 10.0955C21.4568 10.4342 21.6468 10.7854 21.7658 11.0576C21.8795 11.3201 22 11.6628 22 12C22 12.3372 21.8795 12.6799 21.7658 12.9424C21.6468 13.2146 21.4568 13.5658 21.2375 13.9045C20.8102 14.5588 20.1376 15.3785 19.3152 16.1197C17.6938 17.5645 15.1145 18.968 12 19C10.8486 18.9882 9.77035 18.7889 8.7866 18.4694L10.3866 16.8694Z" fill="black"/>
</svg>
