<svg width="24" height="24" viewBox="0 0 24 24" fill="none" xmlns="http://www.w3.org/2000/svg">
<path fill-rule="evenodd" clip-rule="evenodd" d="M17.0819 13.3271C16.488 12.5941 15.6763 11.5615 15.3409 10.3097C14.7353 8.04942 13.8406 7.25489 13.1658 6.95041C12.424 6.61578 11.5219 6.67425 10.5533 6.93378C9.58541 7.19312 8.77493 7.59353 8.29975 8.25428C7.8676 8.85536 7.4901 9.99075 8.09573 12.251C8.43136 13.5036 8.24474 14.8037 8.09686 15.7355C8.08353 15.819 8.07087 15.8993 8.05835 15.9772C7.90596 16.9327 7.82761 17.4226 7.89164 17.7572C7.89202 17.7587 7.89169 17.7603 7.89208 17.7618C7.95245 17.7929 8.07523 17.8455 8.26743 17.8615C9.0544 17.9558 10.5564 17.8033 13.2709 17.076C15.9861 16.3485 17.3631 15.7295 17.9967 15.2545C18.1559 15.1444 18.2357 15.0368 18.2724 14.9796C18.2721 14.9781 18.2709 14.9769 18.2706 14.9754C18.1587 14.6536 17.8457 14.2678 17.2348 13.5152C17.1862 13.4553 17.1351 13.3921 17.0819 13.3271ZM18.2946 15.042C18.2913 15.0382 18.2844 15.0214 18.2831 15.0047C18.2965 15.0376 18.2972 15.0459 18.2946 15.042ZM7.90409 17.8269C7.9038 17.8316 7.90022 17.824 7.89564 17.7895C7.90208 17.8049 7.90437 17.8221 7.90409 17.8269ZM18.4557 12.6383C17.7861 11.82 17.0606 10.9321 16.7898 9.92145C15.431 4.85034 12.3391 4.90236 10.165 5.48489C7.99243 6.06704 5.28804 7.56814 6.64684 12.6392C6.91783 13.6506 6.73275 14.7825 6.5622 15.8268C6.12188 18.5272 5.77714 20.6369 13.6591 18.5249C21.5425 16.4125 20.188 14.7567 18.4557 12.6383Z" fill="black" stroke="black" stroke-width="0.4"/>
<path fill-rule="evenodd" clip-rule="evenodd" d="M11.0385 4.54588C11.258 4.51581 11.4173 4.30773 11.3185 4.10982C11.0097 3.49064 10.2839 3.13226 9.58486 3.31958C8.88504 3.5071 8.43645 4.18013 8.47863 4.87075C8.49199 5.09157 8.73401 5.1921 8.93909 5.10842C9.60725 4.83466 10.323 4.64288 11.0385 4.54588Z" fill="black" stroke="black" stroke-width="0.4"/>
<path fill-rule="evenodd" clip-rule="evenodd" d="M11.638 19.7824C11.2508 19.8589 10.9781 20.2465 11.1979 20.5743C11.8447 21.5392 13.3771 21.7149 14.4377 21.4307C15.499 21.1463 16.7369 20.2284 16.8153 19.0691C16.8417 18.6753 16.4118 18.4761 16.0382 18.6033C15.6433 18.7379 15.3196 19.2423 14.9922 19.5009C14.679 19.7494 14.232 19.9329 14.0495 19.9818C13.8314 20.0402 13.3589 20.114 12.9756 20.0568C12.5625 19.9959 12.0472 19.7015 11.638 19.7824Z" fill="black" stroke="black" stroke-width="0.4"/>
</svg>
