<svg width="24" height="24" viewBox="0 0 24 24" fill="none" xmlns="http://www.w3.org/2000/svg">
<path fill-rule="evenodd" clip-rule="evenodd" d="M16.6628 14.607C16.2788 13.7453 15.762 12.5378 15.762 11.2418C15.762 8.90176 15.1035 7.90276 14.5305 7.43401C13.9005 6.91876 13.014 6.74176 12.0113 6.74176C11.0093 6.74176 10.1228 6.91876 9.49275 7.43401C8.91975 7.90276 8.26125 8.90176 8.26125 11.2418C8.26125 12.5385 7.7445 13.746 7.3605 14.6078C7.326 14.685 7.293 14.7593 7.26075 14.8313C6.86625 15.7148 6.66375 16.1678 6.639 16.5075C6.639 16.509 6.63825 16.5105 6.63825 16.512C6.6885 16.5578 6.7935 16.6403 6.975 16.7055C7.71075 17.0003 9.201 17.2418 12.0113 17.2418C14.8223 17.2418 16.3125 17.0003 17.0475 16.7055C17.2298 16.6403 17.3348 16.557 17.385 16.5113C17.385 16.5098 17.3843 16.5083 17.3843 16.5068C17.3595 16.167 17.157 15.7133 16.7618 14.8283C16.7303 14.7578 16.6973 14.6835 16.6628 14.607ZM17.3903 16.5773C17.388 16.5728 17.3858 16.5548 17.3888 16.5383C17.3933 16.5735 17.3918 16.5818 17.3903 16.5773ZM6.633 16.578C6.6315 16.5825 6.63 16.5743 6.6345 16.5398C6.63675 16.5563 6.6345 16.5735 6.633 16.578ZM18.168 14.2973C17.733 13.3335 17.262 12.288 17.262 11.2418C17.262 5.99176 14.262 5.24176 12.0113 5.24176C9.762 5.24176 6.76125 5.99176 6.76125 11.2418C6.76125 12.2888 6.2895 13.3343 5.8545 14.2988C4.73025 16.7933 3.85125 18.7418 12.0113 18.7418C20.1728 18.7418 19.293 16.7918 18.168 14.2973Z" fill="black"/>
<path fill-rule="evenodd" clip-rule="evenodd" d="M13.098 4.56075C13.3177 4.5885 13.5255 4.42875 13.4812 4.212C13.3432 3.534 12.735 3 12.0112 3C11.2867 3 10.6792 3.534 10.5412 4.212C10.497 4.42875 10.7047 4.5885 10.9245 4.56075C11.6407 4.46925 12.3817 4.46925 13.098 4.56075Z" fill="black"/>
<path fill-rule="evenodd" clip-rule="evenodd" d="M9.73351 19.4332C9.33976 19.407 8.97601 19.7107 9.10351 20.0842C9.47851 21.1837 10.9133 21.75 12.0113 21.75C13.11 21.75 14.5433 21.1837 14.919 20.0842C15.0465 19.7107 14.6828 19.407 14.289 19.4332C13.8728 19.461 13.4295 19.8645 13.0463 20.0295C12.6795 20.1885 12.2003 20.25 12.0113 20.25C11.7855 20.25 11.31 20.199 10.9545 20.0445C10.5713 19.8787 10.1498 19.461 9.73351 19.4332Z" fill="black"/>
</svg>
