<svg width="24" height="24" viewBox="0 0 24 24" fill="none" xmlns="http://www.w3.org/2000/svg">
<path d="M15.1111 3H15.01C14.6619 3.00319 14.3248 3.11776 14.0515 3.32572C13.7783 3.53369 13.5844 3.82327 13.5003 4.149C13.4103 4.46613 13.2147 4.74594 12.9436 4.94539C12.6725 5.14484 12.341 5.25288 12 5.25288C11.659 5.25288 11.3275 5.14484 11.0564 4.94539C10.7853 4.74594 10.5897 4.46613 10.4997 4.149C10.4156 3.82327 10.2217 3.53369 9.94846 3.32572C9.67522 3.11776 9.33809 3.00319 8.99 3H8.88889C7.85787 3.00119 6.86943 3.39666 6.14039 4.09966C5.41135 4.80267 5.00124 5.7558 5 6.75V18.75C5 19.3467 5.24583 19.919 5.68342 20.341C6.121 20.7629 6.71449 21 7.33333 21H8.99C9.33809 20.9968 9.67522 20.8822 9.94846 20.6743C10.2217 20.4663 10.4156 20.1767 10.4997 19.851C10.5897 19.5339 10.7853 19.2541 11.0564 19.0546C11.3275 18.8552 11.659 18.7471 12 18.7471C12.341 18.7471 12.6725 18.8552 12.9436 19.0546C13.2147 19.2541 13.4103 19.5339 13.5003 19.851C13.5844 20.1767 13.7783 20.4663 14.0515 20.6743C14.3248 20.8822 14.6619 20.9968 15.01 21H16.6667C17.2855 21 17.879 20.7629 18.3166 20.341C18.7542 19.919 19 19.3467 19 18.75V6.75C18.9988 5.7558 18.5886 4.80267 17.8596 4.09966C17.1306 3.39666 16.1421 3.00119 15.1111 3ZM16.6667 19.5L14.9999 19.4528C14.8172 18.8163 14.4219 18.2558 13.8752 17.8581C13.3285 17.4604 12.6609 17.2477 11.9761 17.2531C11.2913 17.2585 10.6275 17.4816 10.0876 17.8879C9.54771 18.2941 9.16189 18.8608 8.99 19.5H7.33333C7.12705 19.5 6.92922 19.421 6.78336 19.2803C6.6375 19.1397 6.55556 18.9489 6.55556 18.75V15.75H8.11111C8.31739 15.75 8.51522 15.671 8.66108 15.5303C8.80694 15.3897 8.88889 15.1989 8.88889 15C8.88889 14.8011 8.80694 14.6103 8.66108 14.4697C8.51522 14.329 8.31739 14.25 8.11111 14.25H6.55556V6.75C6.55556 6.15326 6.80139 5.58097 7.23897 5.15901C7.67656 4.73705 8.27005 4.5 8.88889 4.5L9.00011 4.54725C9.18229 5.17982 9.57411 5.73753 10.1158 6.13526C10.6574 6.53299 11.3192 6.74889 12 6.75C12.69 6.74434 13.3592 6.52148 13.9058 6.11532C14.4524 5.70917 14.8464 5.14196 15.0279 4.5H15.1111C15.7299 4.5 16.3234 4.73705 16.761 5.15901C17.1986 5.58097 17.4444 6.15326 17.4444 6.75V14.25H15.8889C15.6826 14.25 15.4848 14.329 15.3389 14.4697C15.1931 14.6103 15.1111 14.8011 15.1111 15C15.1111 15.1989 15.1931 15.3897 15.3389 15.5303C15.4848 15.671 15.6826 15.75 15.8889 15.75H17.4444V18.75C17.4444 18.9489 17.3625 19.1397 17.2166 19.2803C17.0708 19.421 16.8729 19.5 16.6667 19.5Z" fill="black"/>
<path d="M12.7777 14.25H11.2221C11.0159 14.25 10.818 14.329 10.6722 14.4697C10.5263 14.6103 10.4444 14.8011 10.4444 15C10.4444 15.1989 10.5263 15.3897 10.6722 15.5303C10.818 15.671 11.0159 15.75 11.2221 15.75H12.7777C12.984 15.75 13.1818 15.671 13.3277 15.5303C13.4735 15.3897 13.5555 15.1989 13.5555 15C13.5555 14.8011 13.4735 14.6103 13.3277 14.4697C13.1818 14.329 12.984 14.25 12.7777 14.25Z" fill="black"/>
</svg>
