<svg width="24" height="24" viewBox="0 0 24 24" fill="none" xmlns="http://www.w3.org/2000/svg">
<path fill-rule="evenodd" clip-rule="evenodd" d="M7.5 7.5C7.5 7.20163 7.38147 6.91548 7.1705 6.7045C6.95952 6.49353 6.67337 6.375 6.375 6.375C6.07663 6.375 5.79048 6.49353 5.5795 6.7045C5.36853 6.91548 5.25 7.20163 5.25 7.5C5.25 7.79837 5.36853 8.08452 5.5795 8.2955C5.79048 8.50647 6.07663 8.625 6.375 8.625C6.67337 8.625 6.95952 8.50647 7.1705 8.2955C7.38147 8.08452 7.5 7.79837 7.5 7.5ZM18.75 7.5C18.75 7.914 18.456 8.25 18.0938 8.25H9.65625C9.294 8.25 9 7.914 9 7.5C9 7.086 9.294 6.75 9.65625 6.75H18.0938C18.456 6.75 18.75 7.086 18.75 7.5ZM7.5 12C7.5 11.7016 7.38147 11.4155 7.1705 11.2045C6.95952 10.9935 6.67337 10.875 6.375 10.875C6.07663 10.875 5.79048 10.9935 5.5795 11.2045C5.36853 11.4155 5.25 11.7016 5.25 12C5.25 12.2984 5.36853 12.5845 5.5795 12.7955C5.79048 13.0065 6.07663 13.125 6.375 13.125C6.67337 13.125 6.95952 13.0065 7.1705 12.7955C7.38147 12.5845 7.5 12.2984 7.5 12ZM18.75 12C18.75 12.414 18.456 12.75 18.0938 12.75H9.65625C9.294 12.75 9 12.414 9 12C9 11.586 9.294 11.25 9.65625 11.25H18.0938C18.456 11.25 18.75 11.586 18.75 12ZM7.5 16.5C7.5 16.2016 7.38147 15.9155 7.1705 15.7045C6.95952 15.4935 6.67337 15.375 6.375 15.375C6.07663 15.375 5.79048 15.4935 5.5795 15.7045C5.36853 15.9155 5.25 16.2016 5.25 16.5C5.25 16.7984 5.36853 17.0845 5.5795 17.2955C5.79048 17.5065 6.07663 17.625 6.375 17.625C6.67337 17.625 6.95952 17.5065 7.1705 17.2955C7.38147 17.0845 7.5 16.7984 7.5 16.5ZM18.75 16.5C18.75 16.914 18.456 17.25 18.0938 17.25H9.65625C9.294 17.25 9 16.914 9 16.5C9 16.086 9.294 15.75 9.65625 15.75H18.0938C18.456 15.75 18.75 16.086 18.75 16.5Z" fill="black"/>
</svg>
