<svg width="24" height="24" viewBox="0 0 24 24" fill="none" xmlns="http://www.w3.org/2000/svg">
<path fill-rule="evenodd" clip-rule="evenodd" d="M14.3966 4.67839C13.83 4.53053 13.1096 4.4995 12 4.5C10.8905 4.4995 10.17 4.53053 9.60337 4.67839C9.1494 4.79118 8.98401 4.93547 8.87201 5.09192C8.716 5.30983 8.53317 5.74565 8.41166 6.67492C8.32256 7.34645 8.2784 8.15369 8.26034 9.16093C9.23713 9.03889 10.463 9 12 9C13.537 9 14.7628 9.03889 15.7397 9.16093C15.7216 8.15369 15.6775 7.34645 15.5884 6.67492C15.4669 5.74565 15.284 5.30983 15.128 5.09192C15.016 4.9355 14.8506 4.79118 14.3966 4.67839ZM17.244 9.48059C17.1698 3.67291 16.3513 3 12 3C7.6487 3 6.83025 3.67291 6.75597 9.48059C4.80288 10.1447 4.5 11.6637 4.5 15C4.5 20.25 5.25 21 12 21C18.75 21 19.5 20.25 19.5 15C19.5 11.6637 19.1972 10.1447 17.244 9.48059ZM6.18842 12.1663C6.03426 12.8503 5.99961 13.7215 6 15C5.99961 16.2785 6.03426 17.1496 6.18842 17.8337C6.31805 18.43 6.49577 18.6664 6.66861 18.8078C6.88022 18.9809 7.29511 19.1817 8.20214 19.3172C9.13782 19.4595 10.3393 19.5002 12 19.5C13.6607 19.5002 14.8622 19.4595 15.7978 19.3172C16.7049 19.1817 17.1198 18.981 17.3314 18.8078C17.5042 18.6664 17.6819 18.43 17.8116 17.8337C17.9657 17.1496 18.0004 16.2785 18 15C18.0004 13.7215 17.9657 12.8503 17.8116 12.1663C17.6819 11.57 17.5042 11.3336 17.3314 11.1922C17.1198 11.019 16.7049 10.8183 15.7978 10.6828C14.8622 10.5405 13.6607 10.4998 12 10.5C10.3393 10.4998 9.13782 10.5405 8.20214 10.6828C7.29511 10.8183 6.88022 11.0191 6.66861 11.1922C6.49577 11.3336 6.31805 11.57 6.18842 12.1663ZM12.75 15.5494C13.1983 15.29 13.5 14.8052 13.5 14.25C13.5 13.4215 12.8285 12.75 12 12.75C11.1716 12.75 10.5 13.4215 10.5 14.25C10.5 14.8052 10.8017 15.29 11.25 15.5494V16.5C11.25 16.9142 11.5858 17.25 12 17.25C12.4142 17.25 12.75 16.9142 12.75 16.5V15.5494Z" fill="black"/>
</svg>
