<svg width="24" height="24" viewBox="0 0 24 24" fill="none" xmlns="http://www.w3.org/2000/svg">
<path fill-rule="evenodd" clip-rule="evenodd" d="M14.7699 9.84002C14.7699 11.4692 14.5197 12.0093 14.336 12.2174C14.1864 12.3878 13.709 12.744 12 12.744C10.291 12.744 9.81364 12.3878 9.66407 12.2174C9.48033 12.0093 9.23012 11.4692 9.23012 9.84002C9.23012 8.23603 10.4701 6.93601 12 6.93601C13.5299 6.93601 14.7699 8.23603 14.7699 9.84002ZM15.5409 13.6898C16.3524 12.9115 16.6165 11.6531 16.6165 9.84002C16.6165 7.16736 14.5492 5 12 5C9.45079 5 7.38353 7.16736 7.38353 9.84002C7.38353 11.6531 7.64759 12.9115 8.45917 13.6898C6.9228 14.5716 5.7179 16.0091 5.09006 17.7447C4.97557 18.0622 4.94879 18.4301 5.13807 18.706C5.6625 19.4697 6.68367 18.5985 7.10469 17.767C8.03445 15.9307 9.87828 14.68 12 14.68C14.1217 14.68 15.9656 15.9307 16.8953 17.767C17.3164 18.5985 18.3375 19.4697 18.862 18.706C19.0512 18.4301 19.0245 18.0622 18.91 17.7447C18.2821 16.0091 17.0772 14.5716 15.5409 13.6898Z" fill="black" stroke="white" stroke-width="0.2"/>
</svg>
