<svg width="24" height="24" viewBox="0 0 24 24" fill="none" xmlns="http://www.w3.org/2000/svg">
<path d="M20.2433 16.5919L18.5006 14.8469C18.1337 14.4796 17.5834 14.4796 17.2166 14.8469C16.8497 15.2143 16.8497 15.7653 17.2166 16.1327L18.9592 17.8775C19.2344 18.1531 19.2344 18.6122 18.9592 18.8878C18.684 19.1633 18.2255 19.1633 17.9503 18.8878L15.1987 16.1327C15.3821 15.949 15.5656 15.8572 15.749 15.6734C17.1248 14.2959 17.9503 12.3673 17.9503 10.4388C17.9503 8.41836 17.2166 6.58163 15.749 5.20408C12.814 2.26531 8.1363 2.26531 5.20127 5.20408C2.26624 8.14284 2.26624 12.8266 5.20127 15.7653C6.57706 17.1428 8.5032 17.9694 10.4293 17.9694C11.53 17.9694 12.6306 17.6939 13.5478 17.2347L16.5745 20.2653C17.0331 20.7245 17.7669 21 18.4089 21C19.0509 21 19.693 20.7245 20.2433 20.2653C21.2522 19.1633 21.2522 17.5102 20.2433 16.5919ZM6.48535 14.2959C4.28408 12.0919 4.28408 8.51022 6.48535 6.39796C7.58598 5.29592 8.96178 4.7449 10.4293 4.7449C11.8968 4.7449 13.2726 5.29592 14.3732 6.39796C15.4739 7.5 16.0242 8.87754 16.0242 10.3469C16.0242 11.8163 15.4739 13.2857 14.3732 14.2959C13.2726 15.3061 11.8968 15.949 10.4293 15.949C8.96178 15.949 7.49424 15.398 6.48535 14.2959Z" fill="black"/>
</svg>
