<svg width="24" height="24" viewBox="0 0 24 24" fill="none" xmlns="http://www.w3.org/2000/svg">
<path fill-rule="evenodd" clip-rule="evenodd" d="M12.783 11.2589C12.7793 11.1809 12.7298 11.1052 12.6345 11.0849L7.047 9.9007C6.87375 9.86395 6.75 9.71095 6.75 9.53395V5.24995C6.75 4.70245 7.2735 4.3807 7.81425 4.56895C11.0355 5.6917 16.875 8.62495 19.5263 10.5877C19.7813 10.7767 19.9125 11.0174 19.9163 11.2589C19.9125 11.5012 19.7813 11.7419 19.5263 11.9309C16.875 13.8937 11.0355 17.0819 7.81425 18.2047C7.2735 18.3929 6.75 18.0712 6.75 17.5237V12.9847C6.75 12.8077 6.87375 12.6547 7.047 12.6179L12.6345 11.4337C12.7298 11.4134 12.7793 11.3369 12.783 11.2589Z" fill="black"/>
</svg>
