<svg width="24" height="24" viewBox="0 0 24 24" fill="none" xmlns="http://www.w3.org/2000/svg">
<path fill-rule="evenodd" clip-rule="evenodd" d="M5.70938 7.10113C5.98341 6.74899 6.12043 6.57293 6.37663 6.47279C6.41481 6.45787 6.46906 6.44089 6.50893 6.43139C6.77652 6.36764 7.02689 6.44592 7.52763 6.60247L7.63893 6.63727C8.01033 6.75338 8.19603 6.81144 8.3633 6.80665C8.40173 6.80555 8.42144 6.80403 8.45959 6.79923C8.62561 6.77834 8.8482 6.66894 9.29338 6.45015C9.73559 6.23282 9.9567 6.12415 10.073 6.00867C10.0998 5.98206 10.1128 5.96791 10.137 5.93889C10.2419 5.81292 10.3106 5.63544 10.448 5.28047L10.5218 5.0898C10.7011 4.62684 10.7907 4.39536 10.9921 4.22902C11.0329 4.19528 11.0937 4.15363 11.14 4.12772C11.3678 4 11.5785 4 12 4C12.422 4 12.6329 4 12.8608 4.12779C12.9071 4.15373 12.9679 4.19539 13.0087 4.22917C13.2101 4.39561 13.2997 4.62733 13.479 5.09078L13.5522 5.28015C13.6895 5.63516 13.7582 5.81267 13.863 5.93868C13.8873 5.96782 13.9003 5.98203 13.9272 6.00875C14.0435 6.12423 14.2646 6.2329 14.7068 6.45025C15.1518 6.66895 15.3743 6.7783 15.5402 6.79922C15.5785 6.80404 15.5983 6.80557 15.6368 6.80667C15.804 6.81142 15.9896 6.75339 16.3609 6.63733L16.4723 6.60248C16.9731 6.44591 17.2236 6.36762 17.4911 6.4313C17.5309 6.44079 17.5851 6.45772 17.6232 6.47261C17.8794 6.57264 18.0166 6.74874 18.2909 7.10095C18.5585 7.44444 18.6923 7.61619 18.7299 7.87962C18.7355 7.91896 18.7396 7.97369 18.7399 8.01343C18.7418 8.27952 18.6174 8.50054 18.3685 8.94259L18.2767 9.10577C18.077 9.46045 17.9772 9.6378 17.9485 9.81206C17.9462 9.8257 17.9452 9.83278 17.9434 9.84648C17.9208 10.0216 17.9766 10.2696 18.0881 10.7655C18.204 11.2804 18.2619 11.5379 18.3584 11.6874C18.366 11.6991 18.37 11.705 18.3779 11.7165C18.4796 11.8624 18.6472 11.9796 18.9823 12.2139L19.0984 12.2951C19.5272 12.5949 19.7416 12.7449 19.8548 12.9942C19.8682 13.0239 19.8846 13.0659 19.8947 13.0969C19.9798 13.3572 19.9304 13.5793 19.8316 14.0235C19.7344 14.4609 19.6858 14.6796 19.4938 14.881C19.4709 14.905 19.4376 14.9363 19.4122 14.9575C19.199 15.1362 18.9367 15.1771 18.4123 15.2589L18.3026 15.276C17.9056 15.3379 17.7071 15.3688 17.5545 15.452C17.5328 15.4638 17.5218 15.4703 17.5008 15.4835C17.3537 15.5759 17.1947 15.7784 16.8767 16.1834C16.5684 16.576 16.4143 16.7723 16.3594 16.9339C16.3516 16.9569 16.3479 16.9689 16.3415 16.9924C16.2966 17.157 16.3107 17.3535 16.3388 17.7463L16.3544 17.9638C16.3899 18.4584 16.4077 18.7056 16.2971 18.9416C16.2768 18.985 16.2438 19.0426 16.2168 19.0821C16.0696 19.2972 15.8817 19.3904 15.506 19.5769C15.1159 19.7706 14.9208 19.8674 14.6526 19.8501C14.6036 19.8469 14.5356 19.8368 14.4877 19.8255C14.2261 19.7639 14.0403 19.5886 13.6687 19.238L13.5515 19.1274C13.2752 18.8667 13.1371 18.7364 12.9896 18.668C12.9491 18.6493 12.9281 18.6409 12.8858 18.6268C12.7316 18.5753 12.4877 18.5753 12 18.5753C11.5121 18.5753 11.2682 18.5753 11.1139 18.6269C11.0719 18.6409 11.0509 18.6493 11.0108 18.6678C10.8631 18.7362 10.7249 18.8666 10.4485 19.1274L10.3316 19.2377C9.95986 19.5885 9.77397 19.7639 9.51233 19.8254C9.46447 19.8367 9.39653 19.8468 9.34747 19.85C9.07923 19.8673 8.88402 19.7703 8.4936 19.5765C8.11857 19.3903 7.93105 19.2972 7.78391 19.0822C7.75688 19.0428 7.72394 18.9852 7.70363 18.9418C7.59306 18.706 7.61068 18.459 7.64591 17.9651L7.66153 17.7461C7.68956 17.3532 7.70358 17.1568 7.65859 16.9922C7.65222 16.9689 7.64855 16.9569 7.64078 16.9341C7.58587 16.7725 7.43174 16.5762 7.12348 16.1836C6.80531 15.7784 6.64623 15.5758 6.49902 15.4833C6.47815 15.4702 6.46723 15.4638 6.44559 15.452C6.29293 15.3689 6.09435 15.3379 5.69718 15.276L5.5884 15.259C5.0641 15.1772 4.80194 15.1364 4.58888 14.9582C4.56312 14.9366 4.52936 14.9049 4.5062 14.8806C4.31467 14.6794 4.26597 14.4606 4.16856 14.0228C4.06987 13.5793 4.02053 13.3576 4.10524 13.0976C4.11548 13.0661 4.13203 13.0236 4.14571 12.9935C4.25889 12.7445 4.47293 12.5948 4.90102 12.2955L5.01754 12.214C5.35279 11.9796 5.52042 11.8624 5.62213 11.7164C5.63002 11.705 5.63398 11.6991 5.64147 11.6875C5.73806 11.538 5.79601 11.2804 5.9119 10.7653C6.02347 10.2694 6.07925 10.0214 6.05665 9.84628C6.0549 9.83271 6.05387 9.8257 6.05166 9.8122C6.02303 9.63792 5.92326 9.46055 5.72371 9.1058L5.63176 8.94234C5.38316 8.50039 5.25885 8.27941 5.2608 8.01355C5.26109 7.97379 5.26517 7.91909 5.27078 7.87973C5.3083 7.61653 5.44199 7.44473 5.70938 7.10113ZM12 15.8424C13.9712 15.8424 15.5694 14.2109 15.5694 12.1986C15.5694 10.1863 13.9712 8.55477 12 8.55477C10.0288 8.55477 8.43056 10.1863 8.43056 12.1986C8.43056 14.2109 10.0288 15.8424 12 15.8424Z" stroke="black" stroke-width="1.6"/>
</svg>
