<svg width="24" height="24" viewBox="0 0 24 24" fill="none" xmlns="http://www.w3.org/2000/svg">
<path d="M12.5303 3.97047C12.2378 3.67797 11.7622 3.67797 11.4698 3.97047L9.21975 6.22047C8.9265 6.51372 8.9265 6.98847 9.21975 7.28172C9.51225 7.57422 9.98775 7.57422 10.2802 7.28172L11.25 6.31197V13.5007C11.25 13.9155 11.586 14.2507 12 14.2507C12.414 14.2507 12.75 13.9155 12.75 13.5007V6.31197L13.7197 7.28172C14.0122 7.57422 14.4878 7.57422 14.7803 7.28172C15.0735 6.98847 15.0735 6.51372 14.7803 6.22047L12.5303 3.97047ZM8.1675 9.23772C8.6085 9.15222 9 9.50772 9 9.95697V10.2765C9 10.4752 8.8515 10.6417 8.65575 10.6747H8.65425C7.87275 10.8022 7.53975 10.9867 7.37475 11.1337C7.2315 11.262 7.05975 11.5005 6.93375 12.1162L6.9285 12.1387C6.78525 12.8332 6.75 13.7182 6.75 15V15.0022C6.75 16.284 6.78525 17.169 6.9285 17.8627L6.93375 17.886C7.05975 18.5017 7.2315 18.7402 7.37475 18.8677C7.539 19.0155 7.87125 19.1992 8.649 19.3267L8.66175 19.3282C9.48225 19.4647 10.5315 19.5015 11.9992 19.5007H12.0007C13.4685 19.5015 14.5177 19.4647 15.3383 19.3282L15.351 19.3267C16.1287 19.1992 16.461 19.0155 16.6252 18.8685C16.7685 18.7402 16.9402 18.5017 17.0662 17.886L17.0715 17.8627C17.2147 17.169 17.25 16.284 17.25 15.0022V15C17.25 13.7182 17.2147 12.8332 17.0715 12.1387L17.0662 12.1162C16.9402 11.5005 16.7685 11.262 16.6252 11.1337C16.4602 10.9867 16.1273 10.8022 15.3458 10.6747H15.3442C15.1477 10.6417 15 10.4752 15 10.2765V9.95697C15 9.50772 15.3915 9.15222 15.8325 9.23772C18.354 9.72897 18.75 11.1525 18.75 15.0007C18.75 20.295 18 21.0007 12 21.0007C6 21.0007 5.25 20.295 5.25 15.0007C5.25 11.1525 5.646 9.72897 8.1675 9.23772Z" fill="black"/>
</svg>
