<svg width="24" height="24" viewBox="0 0 24 24" fill="none" xmlns="http://www.w3.org/2000/svg">
<path d="M19.8624 9.95819C19.6439 9.23158 18.9883 8.6503 18.2599 8.57766L15.2005 8.14166L13.8165 5.23523C13.4523 4.43596 12.7967 4 11.9955 4C11.1942 4 10.5386 4.43596 10.1744 5.16257L8.7904 8.06902L5.73102 8.57766C5.0026 8.72294 4.34702 9.23158 4.1285 9.95819C3.83713 10.7574 4.05565 11.5567 4.63839 12.138L6.8965 14.3905L6.3866 17.5876C6.24092 18.3868 6.60513 19.1861 7.26071 19.6221C7.62492 19.8401 7.98912 19.9854 8.42619 19.9854C8.7904 19.9854 9.08176 19.9127 9.37312 19.7674L12.1411 18.2415L14.9091 19.7674C15.5648 20.1307 16.366 20.058 17.0216 19.6221C17.6771 19.1861 18.0413 18.3868 17.8957 17.5876L17.3858 14.3905L19.6439 12.138C19.9353 11.5567 20.1538 10.6848 19.8624 9.95819Z" fill="black"/>
</svg>
