<svg width="24" height="24" viewBox="0 0 24 24" fill="none" xmlns="http://www.w3.org/2000/svg">
<path fill-rule="evenodd" clip-rule="evenodd" d="M9.45922 4.8041C9.94762 3.82974 10.8667 3.20001 11.9955 3.20001C13.1352 3.20001 14.0583 3.84217 14.5415 4.897L15.7383 7.41022L18.3578 7.78353C19.4209 7.89786 20.3079 8.71081 20.618 9.69378C21.0134 10.7207 20.691 11.8344 20.3591 12.4965L20.3009 12.6127L18.2402 14.6682L18.6844 17.4536C18.8851 18.5767 18.3728 19.6842 17.4646 20.2882C16.5969 20.8652 15.4753 20.9954 14.522 20.4675C14.5218 20.4674 14.5223 20.4676 14.522 20.4675L12.1411 19.155L9.74493 20.4759L9.73021 20.4833C9.32721 20.6843 8.91352 20.7854 8.42619 20.7854C7.7929 20.7854 7.28497 20.5689 6.84988 20.3086L6.83355 20.2988L6.81769 20.2882C5.9095 19.6842 5.39715 18.5766 5.59787 17.4536L6.0421 14.6682L4.07342 12.7044C3.29458 11.9275 2.97387 10.8152 3.36921 9.70549C3.69339 8.66109 4.61477 7.98454 5.57455 7.79312L5.58715 7.79061L8.24753 7.3483L9.4556 4.81133L9.45922 4.8041ZM10.8929 5.51452L9.33328 8.78975L5.87625 9.36451C5.3914 9.46509 5.01283 9.79549 4.8946 10.1886L4.88798 10.2106L4.88011 10.2322C4.70447 10.714 4.82173 11.1909 5.2034 11.5717L7.7509 14.1128L7.17523 17.7223L7.17364 17.731C7.08862 18.1975 7.29808 18.6778 7.68913 18.9461C7.97375 19.1142 8.19019 19.1854 8.42619 19.1854C8.66133 19.1854 8.82792 19.1433 9.00272 19.0581L12.1411 17.328L15.2953 19.0668L15.2969 19.0676C15.6547 19.2659 16.1353 19.2507 16.5785 18.956C16.979 18.6897 17.1947 18.2033 17.1087 17.731L17.1071 17.7223L16.5314 14.1128L18.9807 11.6697C19.1907 11.1977 19.275 10.6427 19.1199 10.2559L19.1066 10.2228L19.0963 10.1886C18.9612 9.73925 18.5537 9.41094 18.1805 9.37372L18.1637 9.37205L14.6628 8.87311L13.0885 5.56702C12.8425 5.02718 12.4559 4.80001 11.9955 4.80001C11.5239 4.80001 11.1332 5.04001 10.8929 5.51452Z" fill="black"/>
</svg>
