<svg width="24" height="24" viewBox="0 0 24 24" fill="none" xmlns="http://www.w3.org/2000/svg">
<path fill-rule="evenodd" clip-rule="evenodd" d="M14.6842 5.78327C14.3795 4.73891 12.8829 4.73891 12.5782 5.78327C12.2278 6.98557 11.8756 7.66742 11.4027 8.1404C10.9297 8.61338 10.2478 8.96552 9.04553 9.31594C8.00118 9.62062 8.00118 11.1172 9.04553 11.4219C10.2478 11.7723 10.9297 12.1245 11.4027 12.5975C11.8756 13.0704 12.2278 13.7523 12.5782 14.9546C12.8829 15.9989 14.3795 15.9989 14.6842 14.9546C15.0346 13.7523 15.3867 13.0704 15.8597 12.5975C16.3327 12.1245 17.0146 11.7723 18.2169 11.4219C19.2612 11.1172 19.2612 9.62062 18.2169 9.31594C17.0146 8.96552 16.3327 8.61338 15.8597 8.1404C15.3867 7.66742 15.0346 6.98557 14.6842 5.78327ZM12.6231 9.36082C13.0391 8.94567 13.3619 8.46233 13.6312 7.90391C13.9005 8.46233 14.2233 8.94567 14.6393 9.36082C15.0553 9.77684 15.5378 10.0996 16.0962 10.3689C15.5378 10.6382 15.0553 10.961 14.6393 11.377C14.2233 11.793 13.9005 12.2755 13.6312 12.8339C13.3619 12.2755 13.0391 11.793 12.6231 11.377C12.2079 10.961 11.7246 10.6382 11.1662 10.3689C11.7246 10.0996 12.2079 9.77684 12.6231 9.36082Z" fill="black" stroke="white" stroke-width="0.2"/>
<path fill-rule="evenodd" clip-rule="evenodd" d="M9.18791 15.311C8.9635 15.6632 8.80469 15.967 8.71061 16.251C8.65969 16.402 8.62862 16.5479 8.61567 16.692C8.60618 16.7921 8.60618 16.8923 8.61567 16.9924C8.62862 17.1365 8.66055 17.2824 8.71061 17.4351C8.80469 17.7182 8.9635 18.0212 9.18791 18.3733C9.21294 18.413 9.23797 18.4527 9.26472 18.4924C9.45029 18.7747 9.09124 19.1346 8.81073 18.949C8.77016 18.9223 8.73046 18.8964 8.69162 18.8713C8.34034 18.6461 8.03739 18.4864 7.75516 18.3923C7.60411 18.3414 7.45911 18.3103 7.31584 18.2974C7.21658 18.2879 7.11732 18.2879 7.0172 18.2974C6.87393 18.3103 6.72893 18.3414 6.57789 18.3923C6.29565 18.4864 5.9927 18.6461 5.64142 18.8713C5.60258 18.8964 5.56288 18.9223 5.52317 18.949C5.2418 19.1346 4.88362 18.7747 5.06918 18.4924C5.09508 18.4519 5.12097 18.413 5.146 18.3733C5.36695 18.0255 5.5249 17.7251 5.61812 17.4446C5.66818 17.2945 5.70011 17.1503 5.71306 17.0079C5.72255 16.9017 5.72255 16.7973 5.71219 16.6912C5.69752 16.5487 5.66472 16.4046 5.61294 16.2544C5.51713 15.9756 5.3566 15.677 5.13133 15.3309C5.1063 15.2921 5.07954 15.2532 5.05278 15.2135C4.86463 14.933 5.2185 14.5688 5.5016 14.7518C5.54216 14.7777 5.58187 14.8035 5.62157 14.8277C5.97976 15.0521 6.28702 15.2101 6.57357 15.3024C6.72634 15.3516 6.87307 15.3818 7.01893 15.393C7.11301 15.4008 7.20622 15.4008 7.3003 15.3922C7.44617 15.3792 7.59289 15.3482 7.7448 15.2972C8.03049 15.2023 8.33689 15.0409 8.69162 14.813C8.73046 14.788 8.77016 14.7621 8.81073 14.7354C9.09124 14.5498 9.45029 14.9097 9.26472 15.1919C9.24919 15.2152 9.23451 15.2377 9.21984 15.2601C9.20948 15.2774 9.19826 15.2938 9.18791 15.311Z" fill="black"/>
</svg>
