<svg width="24" height="24" viewBox="0 0 24 24" fill="none" xmlns="http://www.w3.org/2000/svg">
<path fill-rule="evenodd" clip-rule="evenodd" d="M14.0587 8.56924C13.7493 8.61372 13.4633 8.39303 13.4198 8.07622C13.3764 7.75941 13.5919 7.46654 13.9013 7.42201L13.9022 7.42186C15.2159 7.23364 18.2249 6.87904 19.556 7.04143C19.7693 7.06887 19.9892 7.12415 20.1527 7.27596C20.3162 7.42773 20.3914 7.64643 20.439 7.86118C20.7328 9.22943 20.6788 12.2755 20.6217 13.6609C20.6087 13.9805 20.3451 14.2291 20.0329 14.2157C19.7208 14.2024 19.4784 13.9325 19.4914 13.6129C19.5297 12.662 19.5585 10.7729 19.4731 9.36374C19.4516 9.40418 19.4264 9.44331 19.3975 9.48066L18.7714 8.97304C19.3975 9.48066 19.3976 9.48057 19.3975 9.48066L19.3934 9.48605L19.382 9.50075L19.3383 9.55686C19.3002 9.60573 19.2444 9.67704 19.1731 9.76758C19.0305 9.94863 18.8257 10.2067 18.5759 10.5163C18.0769 11.1346 17.3957 11.9614 16.6708 12.79C15.949 13.6151 15.1703 14.4576 14.4783 15.0994C14.1337 15.419 13.7924 15.7059 13.4778 15.9177C13.2036 16.1024 12.8048 16.3333 12.3823 16.3333C11.9862 16.3333 11.6444 16.1567 11.3928 15.984C11.1301 15.8037 10.8771 15.5657 10.6424 15.3161C10.1804 14.8248 9.69337 14.1836 9.24052 13.5874L9.22291 13.5642C8.74899 12.9402 8.31091 12.365 7.91371 11.9426C7.71586 11.7322 7.55285 11.5869 7.42458 11.4988C7.37518 11.4649 7.34025 11.446 7.31855 11.4356C7.29059 11.4468 7.2399 11.47 7.16367 11.5176C7.01097 11.613 6.8202 11.7656 6.59734 11.9763C6.15303 12.3963 5.65738 12.9738 5.1843 13.5751C4.7148 14.172 4.28368 14.7715 3.96894 15.2236C3.81192 15.4491 3.68466 15.6368 3.59699 15.7675C3.55318 15.8329 3.5193 15.884 3.49658 15.9184L3.47105 15.9572L3.46487 15.9666L3.46347 15.9688C3.21879 16.3445 2.72269 16.4465 2.35572 16.196C1.98872 15.9454 1.88955 15.4377 2.13422 15.0619L2.79872 15.5155C2.13422 15.0619 2.13415 15.062 2.13422 15.0619L2.13721 15.0573L2.14479 15.0457L2.17326 15.0024C2.19799 14.965 2.23404 14.9106 2.28017 14.8418C2.3724 14.7042 2.50512 14.5086 2.66838 14.2741C2.99421 13.8061 3.44492 13.1789 3.94043 12.5491C4.43236 11.9237 4.98492 11.2745 5.51395 10.7744C5.77776 10.5251 6.05494 10.2943 6.33171 10.1214C6.59173 9.95892 6.93947 9.79085 7.32431 9.79085C7.72037 9.79085 8.06223 9.96748 8.31384 10.1402C8.57656 10.3205 8.82951 10.5585 9.06425 10.8081C9.52625 11.2994 10.0133 11.9406 10.4661 12.5369L10.4837 12.56C10.9576 13.184 11.3957 13.7592 11.7929 14.1816C11.9908 14.392 12.1538 14.5373 12.282 14.6253C12.3231 14.6535 12.3542 14.6714 12.376 14.6826C12.415 14.6643 12.4879 14.6267 12.6002 14.5511C12.8169 14.4052 13.0893 14.1809 13.406 13.8871C14.0367 13.3022 14.7721 12.5091 15.4811 11.6986C16.1871 10.8916 16.8537 10.0827 17.3446 9.47434C17.5898 9.17051 17.7906 8.91749 17.9298 8.74074C17.9994 8.65238 18.0536 8.58313 18.0902 8.53617L18.1317 8.48287L18.1445 8.46629L18.1451 8.46556C18.2785 8.29306 18.4662 8.19026 18.6635 8.16273C17.2681 8.17413 15.0714 8.42578 14.0587 8.56924ZM18.8824 8.16304C19.0185 8.18248 19.1516 8.23817 19.2671 8.33184C19.3137 8.36966 19.3552 8.41175 19.3913 8.45711C19.3783 8.35919 19.3642 8.26775 19.349 8.18379C19.2126 8.17176 19.0555 8.16511 18.8824 8.16304Z" fill="black"/>
<path d="M19.3975 9.48066C19.4264 9.44331 19.4516 9.40418 19.4731 9.36374C19.5585 10.7729 19.5297 12.662 19.4913 13.6129C19.4784 13.9325 19.7208 14.2024 20.0329 14.2157C20.3451 14.2291 20.6087 13.9805 20.6217 13.6609C20.6788 12.2755 20.7328 9.22943 20.439 7.86118C20.3914 7.64643 20.3162 7.42773 20.1527 7.27596C19.9892 7.12415 19.7693 7.06887 19.556 7.04143C18.2249 6.87904 15.2159 7.23364 13.9022 7.42186L13.9013 7.42201C13.5919 7.46654 13.3764 7.75941 13.4198 8.07622C13.4633 8.39303 13.7493 8.61372 14.0587 8.56924C15.0714 8.42578 17.2681 8.17413 18.6635 8.16273C18.4662 8.19026 18.2785 8.29306 18.1451 8.46556L18.1445 8.46629L18.1317 8.48287L18.0902 8.53617C18.0536 8.58313 17.9994 8.65238 17.9298 8.74074C17.7906 8.91749 17.5898 9.17051 17.3446 9.47434C16.8537 10.0827 16.1871 10.8916 15.4811 11.6986C14.7721 12.5091 14.0367 13.3022 13.406 13.8871C13.0893 14.1809 12.8169 14.4052 12.6002 14.5511C12.4879 14.6267 12.415 14.6643 12.376 14.6826C12.3542 14.6714 12.3231 14.6535 12.282 14.6253C12.1538 14.5373 11.9908 14.392 11.7929 14.1816C11.3957 13.7592 10.9576 13.184 10.4837 12.56L10.4661 12.5369C10.0133 11.9406 9.52625 11.2994 9.06425 10.8081C8.82951 10.5585 8.57656 10.3205 8.31384 10.1402C8.06223 9.96748 7.72037 9.79085 7.32431 9.79085C6.93947 9.79085 6.59173 9.95892 6.33171 10.1214C6.05494 10.2943 5.77776 10.5251 5.51395 10.7744C4.98492 11.2745 4.43236 11.9237 3.94043 12.5491C3.44492 13.1789 2.99421 13.8061 2.66838 14.2741C2.50512 14.5086 2.3724 14.7042 2.28017 14.8418C2.23404 14.9106 2.19799 14.965 2.17326 15.0024L2.14479 15.0457L2.13721 15.0573L2.13422 15.0619M19.3975 9.48066L18.7714 8.97304C19.3975 9.48066 19.3976 9.48057 19.3975 9.48066ZM19.3975 9.48066L19.3934 9.48605L19.382 9.50075L19.3383 9.55686C19.3002 9.60573 19.2444 9.67704 19.1731 9.76758C19.0305 9.94863 18.8257 10.2067 18.5759 10.5163C18.0769 11.1346 17.3957 11.9614 16.6708 12.79C15.949 13.6151 15.1703 14.4576 14.4783 15.0994C14.1337 15.419 13.7924 15.7059 13.4778 15.9177C13.2036 16.1024 12.8048 16.3333 12.3823 16.3333C11.9862 16.3333 11.6444 16.1567 11.3928 15.984C11.1301 15.8037 10.8771 15.5657 10.6424 15.3161C10.1804 14.8248 9.69337 14.1836 9.24052 13.5874L9.22291 13.5642C8.74899 12.9402 8.31091 12.365 7.91371 11.9426C7.71586 11.7322 7.55285 11.5869 7.42458 11.4988C7.37518 11.4649 7.34025 11.446 7.31856 11.4356C7.29059 11.4468 7.2399 11.47 7.16367 11.5176C7.01097 11.613 6.8202 11.7656 6.59734 11.9763C6.15303 12.3963 5.65738 12.9738 5.1843 13.5751C4.7148 14.172 4.28368 14.7715 3.96894 15.2236C3.81192 15.4491 3.68466 15.6368 3.59699 15.7675C3.55318 15.8329 3.5193 15.884 3.49658 15.9184L3.47105 15.9572L3.46487 15.9666L3.46347 15.9688C3.21879 16.3445 2.72269 16.4465 2.35572 16.196C1.98872 15.9454 1.88955 15.4377 2.13422 15.0619M2.13422 15.0619L2.79872 15.5155C2.13422 15.0619 2.13415 15.062 2.13422 15.0619ZM18.8824 8.16304C19.0185 8.18248 19.1516 8.23817 19.2671 8.33184C19.3137 8.36966 19.3552 8.41175 19.3913 8.45711C19.3783 8.35919 19.3642 8.26775 19.349 8.18379C19.2126 8.17176 19.0555 8.16511 18.8824 8.16304Z" stroke="black" stroke-width="0.2"/>
</svg>
