<svg width="24" height="24" viewBox="0 0 24 24" fill="none" xmlns="http://www.w3.org/2000/svg">
<path fill-rule="evenodd" clip-rule="evenodd" d="M4.06943 12.1475C4.04023 12.0801 4.02279 12.0316 4.0125 12C4.02279 11.9684 4.04023 11.9199 4.06943 11.8525C4.15181 11.6599 4.2622 11.4564 4.43916 11.1858C4.80449 10.6213 5.30807 10.0035 6.01971 9.36969C7.46653 8.06451 9.38721 6.96802 12 7C14.6128 6.96802 16.5335 8.06451 17.9803 9.36969C18.6919 10.0035 19.1955 10.6213 19.5608 11.1858C19.7378 11.4564 19.8482 11.6599 19.9306 11.8525C19.9598 11.9199 19.9772 11.9684 19.9875 12C19.9772 12.0316 19.9598 12.0801 19.9306 12.1475C19.8482 12.3401 19.7378 12.5436 19.5608 12.8142C19.1955 13.3787 18.6919 13.9965 17.9803 14.6303C16.5335 15.9355 14.6128 17.032 12 17C9.38721 17.032 7.46653 15.9355 6.01971 14.6303C5.30807 13.9965 4.80449 13.3787 4.43916 12.8142C4.2622 12.5436 4.15181 12.3401 4.06943 12.1475ZM12 5C8.88552 5.03198 6.3062 6.43549 4.68483 7.88031C3.86238 8.62152 3.18983 9.44116 2.76254 10.0955C2.5432 10.4342 2.35316 10.7854 2.2342 11.0576C2.12051 11.3201 2 11.6628 2 12C2 12.3372 2.12051 12.6799 2.2342 12.9424C2.35316 13.2146 2.5432 13.5658 2.76254 13.9045C3.18983 14.5588 3.86238 15.3785 4.68483 16.1197C6.3062 17.5645 8.88552 18.968 12 19C15.1145 18.968 17.6938 17.5645 19.3152 16.1197C20.1376 15.3785 20.8102 14.5588 21.2375 13.9045C21.4568 13.5658 21.6468 13.2146 21.7658 12.9424C21.8795 12.6799 22 12.3372 22 12C22 11.6628 21.8795 11.3201 21.7658 11.0576C21.6468 10.7854 21.4568 10.4342 21.2375 10.0955C20.8102 9.44116 20.1376 8.62152 19.3152 7.88031C17.6938 6.43549 15.1145 5.03198 12 5ZM14.5 11.5C14.6546 11.5 14.8051 11.4825 14.9496 11.4493C14.9827 11.6278 15 11.8119 15 12C15 13.6569 13.6569 15 12 15C10.3432 15 9 13.6569 9 12C9 10.3431 10.3432 9 12 9C12.1881 9 12.3722 9.01727 12.5507 9.05042C12.5175 9.19495 12.5 9.3454 12.5 9.5C12.5 10.6045 13.3954 11.5 14.5 11.5Z" fill="black"/>
</svg>
